AbbaGarima-Regular.ufo
<glyph name="uni1218" format="2">
  <advance width="972"/>
  <unicode hex="1218"/>
  <outline>
    <contour>
      <point x="618" y="525" type="curve" smooth="yes"/>
      <point x="405" y="525"/>
      <point x="232" y="473"/>
      <point x="163" y="428" type="curve" smooth="yes"/>
      <point x="96" y="385"/>
      <point x="76" y="345"/>
      <point x="76" y="299" type="curve" smooth="yes"/>
      <point x="76" y="177"/>
      <point x="252" y="40"/>
      <point x="383" y="40" type="curve" smooth="yes"/>
      <point x="411" y="40"/>
      <point x="431" y="65"/>
      <point x="429" y="104" type="curve"/>
      <point x="401" y="107" type="line"/>
      <point x="462" y="228"/>
      <point x="495" y="336"/>
      <point x="538" y="410" type="curve"/>
      <point x="482" y="405" type="line"/>
      <point x="521" y="337"/>
      <point x="548" y="207"/>
      <point x="560" y="82" type="curve"/>
      <point x="579" y="73"/>
      <point x="618" y="77"/>
      <point x="634" y="88" type="curve" smooth="yes"/>
      <point x="643" y="94"/>
      <point x="648" y="104"/>
      <point x="633" y="153" type="curve"/>
      <point x="615" y="91" type="line"/>
      <point x="795" y="177"/>
      <point x="900" y="296"/>
      <point x="900" y="377" type="curve" smooth="yes"/>
      <point x="900" y="476"/>
      <point x="771" y="525"/>
    </contour>
    <contour>
      <point x="165" y="295" type="curve" smooth="yes"/>
      <point x="165" y="351"/>
      <point x="232" y="443"/>
      <point x="500" y="465" type="curve"/>
      <point x="478" y="482" type="line"/>
      <point x="424" y="351"/>
      <point x="378" y="227"/>
      <point x="341" y="161" type="curve" smooth="yes"/>
      <point x="332" y="145"/>
      <point x="324" y="138"/>
      <point x="316" y="138" type="curve" smooth="yes"/>
      <point x="277" y="138"/>
      <point x="165" y="223"/>
    </contour>
    <contour>
      <point x="572" y="438" type="curve" smooth="yes"/>
      <point x="572" y="460"/>
      <point x="586" y="472"/>
      <point x="623" y="472" type="curve" smooth="yes"/>
      <point x="715" y="472"/>
      <point x="806" y="423"/>
      <point x="806" y="361" type="curve" smooth="yes"/>
      <point x="806" y="319"/>
      <point x="748" y="223"/>
      <point x="603" y="172" type="curve"/>
      <point x="634" y="171" type="line"/>
      <point x="596" y="302"/>
      <point x="572" y="418"/>
    </contour>
  </outline>
</glyph>
<glyph name="uni121C" format="2">
  <advance width="1025"/>
  <unicode hex="121C"/>
  <outline>
    <contour>
      <point x="165" y="405" type="curve" smooth="yes"/>
      <point x="165" y="461"/>
      <point x="232" y="553"/>
      <point x="500" y="575" type="curve"/>
      <point x="478" y="592" type="line"/>
      <point x="424" y="461"/>
      <point x="378" y="337"/>
      <point x="341" y="271" type="curve" smooth="yes"/>
      <point x="332" y="255"/>
      <point x="324" y="248"/>
      <point x="316" y="248" type="curve" smooth="yes"/>
      <point x="277" y="248"/>
      <point x="165" y="333"/>
    </contour>
    <contour>
      <point x="661.0" y="64" type="curve" smooth="yes"/>
      <point x="661.0" y="84"/>
      <point x="691" y="158.0"/>
      <point x="709" y="158.0" type="curve" smooth="yes"/>
      <point x="755" y="158"/>
      <point x="804" y="148"/>
      <point x="826" y="135" type="curve" smooth="yes"/>
      <point x="833" y="131"/>
      <point x="837.0" y="124.0"/>
      <point x="837" y="108" type="curve" smooth="yes"/>
      <point x="837.0" y="88.0"/>
      <point x="830" y="66"/>
      <point x="817" y="51" type="curve" smooth="yes"/>
      <point x="809" y="41"/>
      <point x="803.0" y="37.0"/>
      <point x="776" y="37" type="curve" smooth="yes"/>
      <point x="744" y="37"/>
      <point x="709.1844660194175" y="42.0"/>
      <point x="683" y="47" type="curve" smooth="yes"/>
      <point x="670" y="49"/>
      <point x="661" y="53"/>
    </contour>
    <contour>
      <point x="706" y="175" type="line"/>
      <point x="791" y="292"/>
      <point x="900.0" y="408.5816733067729"/>
      <point x="900" y="496" type="curve" smooth="yes"/>
      <point x="900" y="589"/>
      <point x="771" y="635"/>
      <point x="618" y="635" type="curve" smooth="yes"/>
      <point x="405" y="635"/>
      <point x="232" y="583"/>
      <point x="163" y="538" type="curve" smooth="yes"/>
      <point x="96" y="495"/>
      <point x="76" y="455"/>
      <point x="76" y="409" type="curve" smooth="yes"/>
      <point x="76" y="287"/>
      <point x="252" y="150"/>
      <point x="383" y="150" type="curve" smooth="yes"/>
      <point x="411" y="150"/>
      <point x="431" y="175"/>
      <point x="429" y="214" type="curve"/>
      <point x="401" y="217" type="line"/>
      <point x="462" y="338"/>
      <point x="495" y="446"/>
      <point x="538" y="520" type="curve"/>
      <point x="487" y="519" type="line"/>
      <point x="531" y="443"/>
      <point x="590" y="324"/>
      <point x="616" y="208" type="curve"/>
      <point x="636" y="201"/>
      <point x="675" y="210"/>
      <point x="689" y="223" type="curve" smooth="yes"/>
      <point x="697" y="230"/>
      <point x="702" y="250"/>
      <point x="679" y="305" type="curve" smooth="yes"/>
      <point x="627" y="430"/>
      <point x="572" y="529"/>
      <point x="572" y="548" type="curve" smooth="yes"/>
      <point x="572" y="570"/>
      <point x="586" y="582"/>
      <point x="623" y="582" type="curve" smooth="yes"/>
      <point x="715" y="582"/>
      <point x="806" y="537"/>
      <point x="806" y="480" type="curve" smooth="yes"/>
      <point x="806.0" y="363.0"/>
      <point x="568.0" y="161.0"/>
      <point x="568.0" y="53" type="curve" smooth="yes"/>
      <point x="568" y="24"/>
      <point x="585.5" y="10.0"/>
      <point x="638" y="0" type="curve" smooth="yes"/>
      <point x="668.1714285714286" y="-7.0"/>
      <point x="762" y="-18.0"/>
      <point x="803" y="-18.0" type="curve" smooth="yes"/>
      <point x="841.0" y="-18.0"/>
      <point x="871" y="-12"/>
      <point x="888" y="10" type="curve" smooth="yes"/>
      <point x="911" y="41"/>
      <point x="923.0" y="86.0"/>
      <point x="923" y="115" type="curve" smooth="yes"/>
      <point x="923.0" y="145.1153846153846"/>
      <point x="913.0" y="162.96153846153845"/>
      <point x="891" y="173" type="curve" smooth="yes"/>
      <point x="841.0" y="195.0"/>
      <point x="733.0" y="211.0"/>
      <point x="664" y="215" type="curve"/>
    </contour>
  </outline>
</glyph>
<glyph name="uni1226" format="2">
  <advance width="964"/>
  <unicode hex="1226"/>
  <outline>
    <contour>
      <point x="468" y="550" type="line"/>
      <point x="468" y="444"/>
      <point x="392" y="243"/>
      <point x="273" y="243" type="curve" smooth="yes"/>
      <point x="222" y="243"/>
      <point x="194" y="270"/>
      <point x="194" y="323" type="curve" smooth="yes"/>
      <point x="194" y="374"/>
      <point x="202" y="432"/>
      <point x="224" y="518" type="curve"/>
      <point x="238" y="526"/>
      <point x="251" y="537"/>
      <point x="251" y="552" type="curve" smooth="yes"/>
      <point x="251" y="581"/>
      <point x="202" y="616"/>
      <point x="148" y="616" type="curve" smooth="yes"/>
      <point x="106" y="616"/>
      <point x="100" y="593"/>
      <point x="100" y="568" type="curve"/>
      <point x="111" y="563"/>
      <point x="125" y="554"/>
      <point x="139" y="543" type="curve"/>
      <point x="139" y="486"/>
      <point x="108" y="357"/>
      <point x="108" y="296" type="curve" smooth="yes"/>
      <point x="108" y="219"/>
      <point x="150" y="185"/>
      <point x="250" y="185" type="curve" smooth="yes"/>
      <point x="347.0" y="185.0"/>
      <point x="435" y="260"/>
      <point x="491" y="365" type="curve"/>
      <point x="519" y="383" type="line"/>
      <point x="547" y="443"/>
      <point x="570" y="523"/>
      <point x="570" y="574" type="curve" smooth="yes"/>
      <point x="570" y="607"/>
      <point x="544" y="624"/>
      <point x="513" y="624" type="curve" smooth="yes"/>
      <point x="486" y="624"/>
      <point x="469" y="612"/>
      <point x="461" y="600" type="curve"/>
      <point x="471" y="433"/>
      <point x="583" y="259"/>
      <point x="710" y="259" type="curve"/>
      <point x="693" y="294" type="line"/>
      <point x="687" y="282"/>
      <point x="676" y="272"/>
      <point x="669" y="266" type="curve"/>
      <point x="674" y="245"/>
      <point x="693" y="227"/>
      <point x="720" y="227" type="curve" smooth="yes"/>
      <point x="738" y="227"/>
      <point x="759" y="234"/>
      <point x="778" y="272" type="curve" smooth="yes"/>
      <point x="798" y="312"/>
      <point x="886" y="510"/>
      <point x="886" y="576" type="curve" smooth="yes"/>
      <point x="886" y="619"/>
      <point x="864" y="635"/>
      <point x="830" y="635" type="curve" smooth="yes"/>
      <point x="799" y="635"/>
      <point x="770" y="615"/>
      <point x="765" y="587" type="curve"/>
      <point x="779" y="580"/>
      <point x="787" y="560"/>
      <point x="786" y="530" type="curve" smooth="yes"/>
      <point x="783" y="464"/>
      <point x="739" y="332"/>
      <point x="681" y="332" type="curve" smooth="yes"/>
      <point x="635" y="332"/>
      <point x="549" y="399"/>
      <point x="526" y="549" type="curve"/>
    </contour>
    <contour>
      <point x="457" y="361" type="line"/>
      <point x="403" y="149"/>
      <point x="362" y="63"/>
      <point x="326" y="48" type="curve"/>
      <point x="327" y="17"/>
      <point x="356" y="-5"/>
      <point x="381" y="-5" type="curve" smooth="yes"/>
      <point x="412" y="-5"/>
      <point x="430" y="10"/>
      <point x="441" y="35" type="curve" smooth="yes"/>
      <point x="462" y="85"/>
      <point x="570" y="446"/>
      <point x="570" y="573" type="curve"/>
    </contour>
  </outline>
</glyph>
<glyph name="uni122E" format="2">
  <advance width="810"/>
  <unicode hex="122E"/>
  <outline>
    <contour>
      <point x="580" y="580" type="curve" smooth="yes"/>
      <point x="641" y="580"/>
      <point x="653" y="560"/>
      <point x="653" y="538" type="curve" smooth="yes"/>
      <point x="653" y="485"/>
      <point x="630" y="440"/>
      <point x="604" y="440" type="curve" smooth="yes"/>
      <point x="563" y="440"/>
      <point x="482" y="497"/>
      <point x="482" y="542" type="curve" smooth="yes"/>
      <point x="482" y="569"/>
      <point x="535" y="580"/>
    </contour>
    <contour>
      <point x="290" y="637"/>
      <point x="93" y="393"/>
      <point x="93" y="173" type="curve" smooth="yes"/>
      <point x="93" y="86"/>
      <point x="159" y="-5"/>
      <point x="272" y="-5" type="curve" smooth="yes"/>
      <point x="390" y="-5"/>
      <point x="451" y="4"/>
      <point x="522" y="17" type="curve"/>
      <point x="478" y="46" type="line"/>
      <point x="478" y="1"/>
      <point x="487" y="-39"/>
      <point x="529" y="-39" type="curve" smooth="yes"/>
      <point x="550" y="-39"/>
      <point x="580" y="-32"/>
      <point x="595" y="-18" type="curve"/>
      <point x="579" y="8"/>
      <point x="575" y="66"/>
      <point x="582" y="118" type="curve"/>
      <point x="569" y="126"/>
      <point x="551" y="132"/>
      <point x="528" y="132" type="curve" smooth="yes"/>
      <point x="502" y="132"/>
      <point x="478" y="108"/>
      <point x="478" y="53" type="curve"/>
      <point x="510" y="69" type="line"/>
      <point x="454" y="58"/>
      <point x="408" y="51"/>
      <point x="336" y="51" type="curve" smooth="yes"/>
      <point x="269" y="51"/>
      <point x="194" y="107"/>
      <point x="194" y="208" type="curve" smooth="yes"/>
      <point x="194" y="328"/>
      <point x="291" y="493"/>
      <point x="432" y="556" type="curve"/>
      <point x="398" y="562" type="line"/>
      <point x="464" y="415"/>
      <point x="538" y="371"/>
      <point x="602" y="371" type="curve" smooth="yes"/>
      <point x="678" y="371"/>
      <point x="739" y="462"/>
      <point x="739" y="550" type="curve" smooth="yes"/>
      <point x="739" y="595"/>
      <point x="700" y="637"/>
      <point x="595" y="637" type="curve" smooth="yes"/>
    </contour>
  </outline>
</glyph>
<glyph name="uni1234" format="2">
  <advance width="863"/>
  <unicode hex="1234"/>
  <outline>
    <contour>
      <point x="451" y="498" type="line"/>
      <point x="465" y="539"/>
      <point x="477" y="578"/>
      <point x="495" y="606" type="curve"/>
      <point x="515" y="617"/>
      <point x="527" y="623"/>
      <point x="527" y="639" type="curve" smooth="yes"/>
      <point x="527" y="666"/>
      <point x="453" y="697"/>
      <point x="404" y="697" type="curve" smooth="yes"/>
      <point x="376" y="697"/>
      <point x="364" y="673"/>
      <point x="370" y="655" type="curve"/>
      <point x="394" y="647"/>
      <point x="406" y="638"/>
      <point x="406" y="619" type="curve" smooth="yes"/>
      <point x="406" y="598"/>
      <point x="393" y="553"/>
      <point x="377" y="498" type="curve"/>
    </contour>
    <contour>
      <point x="548.0" y="71" type="curve" smooth="yes"/>
      <point x="548.0" y="107.0"/>
      <point x="561" y="158.0"/>
      <point x="570" y="158.0" type="curve" smooth="yes"/>
      <point x="620" y="158.0"/>
      <point x="680" y="147.0"/>
      <point x="703" y="135" type="curve" smooth="yes"/>
      <point x="710" y="131"/>
      <point x="714" y="124"/>
      <point x="714" y="108" type="curve" smooth="yes"/>
      <point x="714.0" y="84.0"/>
      <point x="707" y="66"/>
      <point x="696" y="51" type="curve" smooth="yes"/>
      <point x="688" y="41"/>
      <point x="676" y="37.0"/>
      <point x="657" y="37" type="curve" smooth="yes"/>
      <point x="630.0" y="37"/>
      <point x="599" y="38.0"/>
      <point x="573" y="43" type="curve" smooth="yes"/>
      <point x="558" y="46.0"/>
      <point x="548" y="53"/>
    </contour>
    <contour>
      <point x="568" y="175" type="line"/>
      <point x="596" y="289"/>
      <point x="636.0" y="435.4406130268199"/>
      <point x="636" y="474" type="curve" smooth="yes"/>
      <point x="636" y="507"/>
      <point x="620" y="525"/>
      <point x="586" y="525" type="curve" smooth="yes"/>
      <point x="558" y="525"/>
      <point x="340" y="506"/>
      <point x="187" y="506" type="curve" smooth="yes"/>
      <point x="156" y="506"/>
      <point x="139" y="488"/>
      <point x="139" y="466" type="curve" smooth="yes"/>
      <point x="139" y="446"/>
      <point x="149" y="431"/>
      <point x="162" y="425" type="curve"/>
      <point x="172" y="430"/>
      <point x="183" y="434"/>
      <point x="195" y="438" type="curve"/>
      <point x="176" y="290"/>
      <point x="84" y="74"/>
      <point x="84" y="33" type="curve" smooth="yes"/>
      <point x="84" y="7"/>
      <point x="103" y="-5"/>
      <point x="132" y="-5" type="curve" smooth="yes"/>
      <point x="157" y="-5"/>
      <point x="170" y="-1"/>
      <point x="189" y="3" type="curve"/>
      <point x="186" y="12"/>
      <point x="185" y="21"/>
      <point x="185" y="37" type="curve" smooth="yes"/>
      <point x="185" y="99"/>
      <point x="244" y="297"/>
      <point x="278" y="407" type="curve" smooth="yes"/>
      <point x="291" y="449"/>
      <point x="298" y="457"/>
      <point x="333" y="459" type="curve" smooth="yes"/>
      <point x="386" y="462"/>
      <point x="444" y="467"/>
      <point x="502" y="467" type="curve" smooth="yes"/>
      <point x="528" y="467"/>
      <point x="537" y="453"/>
      <point x="537" y="433" type="curve" smooth="yes"/>
      <point x="537.0" y="316.80250783699057"/>
      <point x="455.0" y="124.0"/>
      <point x="455.0" y="58" type="curve" smooth="yes"/>
      <point x="455" y="29"/>
      <point x="470.0" y="10"/>
      <point x="512" y="1" type="curve" smooth="yes"/>
      <point x="544" y="-6"/>
      <point x="634" y="-18.0"/>
      <point x="687" y="-18.0" type="curve" smooth="yes"/>
      <point x="727" y="-18.0"/>
      <point x="750" y="-9"/>
      <point x="769" y="13" type="curve" smooth="yes"/>
      <point x="792" y="41"/>
      <point x="800.0" y="86"/>
      <point x="800" y="115" type="curve" smooth="yes"/>
      <point x="800.0" y="145.1153846153846"/>
      <point x="790.0" y="162.96153846153845"/>
      <point x="768" y="173" type="curve" smooth="yes"/>
      <point x="715" y="195.0"/>
      <point x="600" y="211.0"/>
      <point x="526" y="215" type="curve"/>
    </contour>
  </outline>
</glyph>
<glyph name="uni1243" format="2">
  <advance width="844"/>
  <unicode hex="1243"/>
  <outline>
    <contour>
      <point x="529" y="586" type="curve"/>
      <point x="539" y="593"/>
      <point x="546" y="601"/>
      <point x="546" y="615" type="curve" smooth="yes"/>
      <point x="546" y="641"/>
      <point x="489" y="657"/>
      <point x="439" y="657" type="curve" smooth="yes"/>
      <point x="401" y="657"/>
      <point x="391" y="634"/>
      <point x="397" y="611" type="curve"/>
      <point x="421" y="607"/>
      <point x="436" y="598"/>
      <point x="436" y="579" type="curve"/>
      <point x="436" y="560"/>
      <point x="433" y="536"/>
      <point x="430" y="509" type="curve"/>
      <point x="310" y="502"/>
      <point x="203" y="473"/>
      <point x="150" y="437" type="curve" smooth="yes"/>
      <point x="121" y="417"/>
      <point x="88" y="369"/>
      <point x="88" y="321" type="curve" smooth="yes"/>
      <point x="88" y="227"/>
      <point x="191" y="195"/>
      <point x="366" y="200" type="curve"/>
      <point x="347" y="122"/>
      <point x="331" y="65"/>
      <point x="331" y="47" type="curve" smooth="yes"/>
      <point x="331" y="21"/>
      <point x="346" y="5"/>
      <point x="369" y="5" type="curve" smooth="yes"/>
      <point x="398" y="5"/>
      <point x="412" y="8"/>
      <point x="429" y="15" type="curve"/>
      <point x="427" y="25"/>
      <point x="425" y="42"/>
      <point x="425" y="57" type="curve" smooth="yes"/>
      <point x="425" y="90"/>
      <point x="431" y="142"/>
      <point x="448" y="206" type="curve"/>
      <point x="583" y="222"/>
      <point x="638" y="250"/>
      <point x="680" y="273" type="curve" smooth="yes"/>
      <point x="735" y="303"/>
      <point x="777" y="359"/>
      <point x="777" y="405" type="curve" smooth="yes"/>
      <point x="777" y="464"/>
      <point x="729" y="515"/>
      <point x="572" y="515" type="curve" smooth="yes"/>
      <point x="539" y="515"/>
      <point x="526" y="514"/>
      <point x="514" y="514" type="curve"/>
      <point x="518" y="544"/>
      <point x="524" y="574"/>
    </contour>
    <contour>
      <point x="654" y="464"/>
      <point x="681" y="435"/>
      <point x="681" y="392" type="curve" smooth="yes"/>
      <point x="681" y="327"/>
      <point x="592" y="267"/>
      <point x="488" y="267" type="curve" smooth="yes"/>
      <point x="474" y="267"/>
      <point x="463" y="268"/>
      <point x="469" y="298" type="curve" smooth="yes"/>
      <point x="478" y="343"/>
      <point x="486" y="394"/>
      <point x="510" y="496" type="curve"/>
      <point x="473" y="464" type="line"/>
    </contour>
    <contour>
      <point x="183" y="331" type="curve" smooth="yes"/>
      <point x="183" y="422"/>
      <point x="306" y="455"/>
      <point x="452" y="460" type="curve"/>
      <point x="426" y="492" type="line"/>
      <point x="413" y="389"/>
      <point x="396" y="325"/>
      <point x="388" y="295" type="curve" smooth="yes"/>
      <point x="380" y="263"/>
      <point x="369" y="253"/>
      <point x="349" y="253" type="curve" smooth="yes"/>
      <point x="239" y="253"/>
      <point x="183" y="279"/>
    </contour>
    <contour>
      <point x="173" y="-11" type="curve"/>
      <point x="203" y="-7"/>
      <point x="291" y="-2"/>
      <point x="369" y="5" type="curve"/>
      <point x="388" y="53" type="line"/>
      <point x="306" y="39"/>
      <point x="202" y="34"/>
      <point x="160" y="35" type="curve"/>
      <point x="95" y="43"/>
      <point x="59" y="6"/>
      <point x="59" y="-43" type="curve" smooth="yes"/>
      <point x="59" y="-73"/>
      <point x="80" y="-94"/>
      <point x="118" y="-94" type="curve" smooth="yes"/>
      <point x="129" y="-94"/>
      <point x="142" y="-92"/>
      <point x="156" y="-88" type="curve"/>
      <point x="152" y="-60"/>
      <point x="159" y="-25"/>
    </contour>
  </outline>
</glyph>
<glyph name="uni1245" format="2">
  <advance width="825"/>
  <unicode hex="1245"/>
  <outline>
    <contour>
      <point x="480" y="465" type="curve" smooth="yes"/>
      <point x="631" y="465"/>
      <point x="661" y="435"/>
      <point x="661" y="392" type="curve" smooth="yes"/>
      <point x="661" y="327"/>
      <point x="573" y="267"/>
      <point x="469" y="267" type="curve" smooth="yes"/>
      <point x="455.096" y="267"/>
      <point x="444.152" y="267.986"/>
      <point x="449.878" y="297.384" type="curve" smooth="yes"/>
      <point x="471.795" y="415.28"/>
      <point x="507.762" y="558.267"/>
      <point x="507.762" y="580" type="curve" smooth="yes"/>
      <point x="507.762" y="600"/>
      <point x="493.762" y="611"/>
      <point x="452.762" y="611" type="curve" smooth="yes"/>
      <point x="407.762" y="611"/>
      <point x="400.362" y="616.004"/>
      <point x="400.762" y="636" type="curve" smooth="yes"/>
      <point x="401.222" y="659"/>
      <point x="401.222" y="656.433"/>
      <point x="417.92" y="701.433" type="curve"/>
      <point x="380.92" y="659.433" type="line"/>
      <point x="426.92" y="684.433"/>
      <point x="443.92" y="696.433"/>
      <point x="443.92" y="712.433" type="curve" smooth="yes"/>
      <point x="443.92" y="739.433"/>
      <point x="373.92" y="770.433"/>
      <point x="326.92" y="770.433" type="curve" smooth="yes"/>
      <point x="298.92" y="770.433"/>
      <point x="286.92" y="746.433"/>
      <point x="292.92" y="728.433" type="curve"/>
      <point x="316.92" y="720.433"/>
      <point x="328.92" y="711.433"/>
      <point x="328.92" y="692.433" type="curve" smooth="yes"/>
      <point x="328.92" y="659.433"/>
      <point x="312.762" y="644"/>
      <point x="312.762" y="607" type="curve" smooth="yes"/>
      <point x="312.762" y="587"/>
      <point x="326.762" y="570"/>
      <point x="357.762" y="570" type="curve" smooth="yes"/>
      <point x="409.762" y="570"/>
      <point x="416.762" y="565"/>
      <point x="416.762" y="546" type="curve" smooth="yes"/>
      <point x="416.762" y="531.673"/>
      <point x="390.539" y="395.263"/>
      <point x="369" y="295" type="curve"/>
      <point x="361" y="263"/>
      <point x="350" y="253"/>
      <point x="330" y="253" type="curve" smooth="yes"/>
      <point x="220" y="253"/>
      <point x="165" y="279"/>
      <point x="165" y="331" type="curve" smooth="yes"/>
      <point x="165" y="422"/>
      <point x="300" y="465"/>
    </contour>
    <contour>
      <point x="131" y="437" type="curve" smooth="yes"/>
      <point x="102" y="417"/>
      <point x="69" y="369"/>
      <point x="69" y="321" type="curve" smooth="yes"/>
      <point x="69" y="227"/>
      <point x="172" y="195"/>
      <point x="347" y="200" type="curve"/>
      <point x="325" y="107"/>
      <point x="307" y="39"/>
      <point x="307" y="17" type="curve" smooth="yes"/>
      <point x="307" y="-9"/>
      <point x="322" y="-25"/>
      <point x="345" y="-25" type="curve" smooth="yes"/>
      <point x="374" y="-25"/>
      <point x="388" y="-22"/>
      <point x="405" y="-15" type="curve"/>
      <point x="403" y="-5"/>
      <point x="401" y="12"/>
      <point x="401" y="27" type="curve" smooth="yes"/>
      <point x="401" y="67"/>
      <point x="413" y="127"/>
      <point x="429" y="206" type="curve"/>
      <point x="564" y="222"/>
      <point x="619" y="250"/>
      <point x="661" y="273" type="curve" smooth="yes"/>
      <point x="716" y="303"/>
      <point x="758" y="359"/>
      <point x="758" y="405" type="curve" smooth="yes"/>
      <point x="758" y="464"/>
      <point x="710" y="515"/>
      <point x="553" y="515" type="curve" smooth="yes"/>
      <point x="310" y="515"/>
      <point x="193" y="479"/>
    </contour>
  </outline>
</glyph>
<glyph name="uni124C" format="2">
  <advance width="830"/>
  <unicode hex="124C"/>
  <outline>
    <contour>
      <point x="211" y="-6" type="curve"/>
      <point x="238" y="-2"/>
      <point x="318" y="2"/>
      <point x="389" y="8" type="curve"/>
      <point x="408" y="56" type="line"/>
      <point x="333" y="43"/>
      <point x="237" y="39"/>
      <point x="198" y="40" type="curve"/>
      <point x="133" y="48"/>
      <point x="97" y="11"/>
      <point x="97" y="-38" type="curve" smooth="yes"/>
      <point x="97" y="-68"/>
      <point x="118" y="-89"/>
      <point x="156" y="-89" type="curve" smooth="yes"/>
      <point x="167" y="-89"/>
      <point x="180" y="-87"/>
      <point x="194" y="-83" type="curve"/>
      <point x="190" y="-55"/>
      <point x="197" y="-20"/>
    </contour>
    <contour>
      <point x="640" y="494"/>
      <point x="667" y="465"/>
      <point x="667" y="422" type="curve" smooth="yes"/>
      <point x="667" y="357"/>
      <point x="578" y="297"/>
      <point x="474" y="297" type="curve" smooth="yes"/>
      <point x="460" y="297"/>
      <point x="449" y="298"/>
      <point x="455" y="328" type="curve" smooth="yes"/>
      <point x="463" y="366"/>
      <point x="470" y="410"/>
      <point x="489" y="496" type="curve"/>
      <point x="459" y="494" type="line"/>
    </contour>
    <contour>
      <point x="169" y="361" type="curve" smooth="yes"/>
      <point x="169" y="452"/>
      <point x="292" y="485"/>
      <point x="438" y="490" type="curve"/>
      <point x="411" y="492" type="line"/>
      <point x="399" y="415"/>
      <point x="383" y="351"/>
      <point x="376" y="325" type="curve" smooth="yes"/>
      <point x="368" y="293"/>
      <point x="356" y="283"/>
      <point x="335" y="283" type="curve" smooth="yes"/>
      <point x="225" y="283"/>
      <point x="169" y="309"/>
    </contour>
    <contour>
      <point x="413.0" y="71" type="curve" smooth="yes"/>
      <point x="413.0" y="103"/>
      <point x="419" y="148.0"/>
      <point x="432" y="148.0" type="curve" smooth="yes"/>
      <point x="483" y="148"/>
      <point x="543" y="141"/>
      <point x="563" y="136" type="curve" smooth="yes"/>
      <point x="576" y="133"/>
      <point x="579" y="124"/>
      <point x="579" y="108" type="curve" smooth="yes"/>
      <point x="579.0" y="84.0"/>
      <point x="572" y="66"/>
      <point x="561" y="51" type="curve" smooth="yes"/>
      <point x="553" y="41"/>
      <point x="541" y="37.0"/>
      <point x="522" y="37" type="curve" smooth="yes"/>
      <point x="495.0" y="37"/>
      <point x="464" y="38.0"/>
      <point x="438" y="43" type="curve" smooth="yes"/>
      <point x="423" y="46.0"/>
      <point x="413" y="53"/>
    </contour>
    <contour>
      <point x="427" y="193" type="line"/>
      <point x="430" y="209"/>
      <point x="433" y="226"/>
      <point x="437" y="244" type="curve"/>
      <point x="404" y="232" type="line"/>
      <point x="569" y="252"/>
      <point x="624" y="280"/>
      <point x="666" y="303" type="curve" smooth="yes"/>
      <point x="721" y="333"/>
      <point x="763" y="389"/>
      <point x="763" y="435" type="curve" smooth="yes"/>
      <point x="763" y="494"/>
      <point x="715" y="545"/>
      <point x="558" y="545" type="curve" smooth="yes"/>
      <point x="525" y="545"/>
      <point x="512" y="544"/>
      <point x="500" y="544" type="curve"/>
      <point x="502" y="562"/>
      <point x="507" y="579"/>
      <point x="510" y="586" type="curve"/>
      <point x="520" y="593"/>
      <point x="527" y="601"/>
      <point x="527" y="615" type="curve" smooth="yes"/>
      <point x="527" y="641"/>
      <point x="470" y="657"/>
      <point x="420" y="657" type="curve" smooth="yes"/>
      <point x="382" y="657"/>
      <point x="372" y="634"/>
      <point x="378" y="611" type="curve"/>
      <point x="402" y="607"/>
      <point x="417" y="598"/>
      <point x="417" y="579" type="curve"/>
      <point x="417" y="568"/>
      <point x="418" y="554"/>
      <point x="416" y="539" type="curve"/>
      <point x="296" y="532"/>
      <point x="189" y="503"/>
      <point x="136" y="467" type="curve" smooth="yes"/>
      <point x="107" y="447"/>
      <point x="74" y="399"/>
      <point x="74" y="351" type="curve" smooth="yes"/>
      <point x="74" y="257"/>
      <point x="177" y="225"/>
      <point x="382" y="231" type="curve"/>
      <point x="356" y="239" type="line"/>
      <point x="341" y="173"/>
      <point x="320.0" y="106"/>
      <point x="320.0" y="58" type="curve" smooth="yes"/>
      <point x="320.0" y="29.0"/>
      <point x="335.0" y="10"/>
      <point x="377" y="1" type="curve" smooth="yes"/>
      <point x="409" y="-6"/>
      <point x="499" y="-18.0"/>
      <point x="552" y="-18.0" type="curve" smooth="yes"/>
      <point x="592" y="-18.0"/>
      <point x="615" y="-9"/>
      <point x="634" y="13" type="curve" smooth="yes"/>
      <point x="657" y="41"/>
      <point x="665.0" y="86"/>
      <point x="665" y="115" type="curve" smooth="yes"/>
      <point x="665.0" y="145.1153846153846"/>
      <point x="656.0" y="165.19230769230768"/>
      <point x="633" y="173" type="curve" smooth="yes"/>
      <point x="578" y="189"/>
      <point x="463" y="202"/>
      <point x="388" y="205" type="curve"/>
    </contour>
  </outline>
</glyph>
<glyph name="uni1261" format="2">
  <advance width="903"/>
  <unicode hex="1261"/>
  <outline>
    <contour>
      <point x="472" y="595.0"/>
      <point x="263.0" y="572.0"/>
      <point x="120" y="565" type="curve"/>
      <point x="115.0" y="556"/>
      <point x="113.0" y="548"/>
      <point x="113" y="540" type="curve" smooth="yes"/>
      <point x="113.0" y="518.0"/>
      <point x="125" y="505.0"/>
      <point x="151" y="505" type="curve" smooth="yes"/>
      <point x="167.0" y="505.0"/>
      <point x="197.0" y="511.0"/>
      <point x="218" y="515" type="curve"/>
      <point x="209" y="521" type="line"/>
      <point x="178.0" y="343.0"/>
      <point x="84.0" y="82.94456289978677"/>
      <point x="84" y="33" type="curve" smooth="yes"/>
      <point x="84" y="7"/>
      <point x="101" y="-5"/>
      <point x="128" y="-5" type="curve" smooth="yes"/>
      <point x="152" y="-5"/>
      <point x="165" y="-2"/>
      <point x="185" y="2" type="curve"/>
      <point x="183" y="12"/>
      <point x="181" y="21"/>
      <point x="181" y="37" type="curve" smooth="yes"/>
      <point x="181.0" y="110.0"/>
      <point x="243.0" y="343.0"/>
      <point x="285" y="474" type="curve" smooth="yes"/>
      <point x="298" y="515"/>
      <point x="309" y="523"/>
      <point x="345" y="527" type="curve" smooth="yes"/>
      <point x="389.0" y="533.0"/>
      <point x="444.0" y="537.0"/>
      <point x="498" y="537" type="curve" smooth="yes"/>
      <point x="524" y="537"/>
      <point x="533" y="523"/>
      <point x="533" y="503" type="curve" smooth="yes"/>
      <point x="533" y="385"/>
      <point x="439" y="170"/>
      <point x="439" y="58" type="curve" smooth="yes"/>
      <point x="439" y="23"/>
      <point x="459" y="2"/>
      <point x="491" y="2" type="curve" smooth="yes"/>
      <point x="506" y="2"/>
      <point x="525" y="7"/>
      <point x="537" y="22" type="curve"/>
      <point x="506" y="138"/>
      <point x="626" y="464"/>
      <point x="626" y="524" type="curve" smooth="yes"/>
      <point x="626.0" y="569.0"/>
      <point x="606.0" y="595.0"/>
      <point x="543" y="595" type="curve" smooth="yes"/>
    </contour>
    <contour>
      <point x="748" y="303" type="curve"/>
      <point x="721" y="322" type="line"/>
      <point x="721" y="253"/>
      <point x="732" y="217"/>
      <point x="775" y="217" type="curve" smooth="yes"/>
      <point x="802" y="217"/>
      <point x="820" y="225"/>
      <point x="830" y="235" type="curve"/>
      <point x="814" y="264"/>
      <point x="808" y="329"/>
      <point x="822" y="377" type="curve"/>
      <point x="810" y="384"/>
      <point x="792" y="388"/>
      <point x="771" y="388" type="curve" smooth="yes"/>
      <point x="746" y="388"/>
      <point x="724" y="372"/>
      <point x="722" y="329" type="curve"/>
      <point x="741" y="356" type="line"/>
      <point x="670.0" y="350"/>
      <point x="633.0" y="346"/>
      <point x="568" y="342" type="curve"/>
      <point x="562" y="295" type="line"/>
      <point x="615.0" y="298"/>
      <point x="684.0" y="301"/>
    </contour>
  </outline>
</glyph>
<glyph name="uni1262" format="2">
  <advance width="871"/>
  <unicode hex="1262"/>
  <outline>
    <contour>
      <point x="631" y="512" type="curve" smooth="yes"/>
      <point x="631.0" y="432.0"/>
      <point x="550" y="177"/>
      <point x="550" y="76" type="curve" smooth="yes"/>
      <point x="550" y="52"/>
      <point x="565" y="45"/>
      <point x="594" y="45" type="curve" smooth="yes"/>
      <point x="627" y="45"/>
      <point x="703" y="72"/>
      <point x="733" y="72" type="curve" smooth="yes"/>
      <point x="743" y="72"/>
      <point x="788" y="61"/>
      <point x="821" y="49" type="curve"/>
      <point x="818" y="22"/>
      <point x="822" y="-21"/>
      <point x="831" y="-45" type="curve"/>
      <point x="819" y="-49"/>
      <point x="801" y="-51"/>
      <point x="788" y="-51" type="curve" smooth="yes"/>
      <point x="733" y="-51"/>
      <point x="713" y="-27"/>
      <point x="714" y="49" type="curve"/>
      <point x="720" y="26" type="line"/>
      <point x="629" y="6"/>
      <point x="552" y="-10"/>
      <point x="522" y="-10" type="curve" smooth="yes"/>
      <point x="480" y="-10"/>
      <point x="455" y="13"/>
      <point x="455" y="52" type="curve" smooth="yes"/>
      <point x="455" y="177"/>
      <point x="539" y="385"/>
      <point x="539" y="485" type="curve" smooth="yes"/>
      <point x="539.0" y="518.0"/>
      <point x="504" y="533"/>
      <point x="396" y="533" type="curve" smooth="yes"/>
      <point x="362" y="533"/>
      <point x="347" y="523"/>
      <point x="328" y="489" type="curve" smooth="yes"/>
      <point x="254" y="358"/>
      <point x="175" y="172"/>
      <point x="175" y="37" type="curve" smooth="yes"/>
      <point x="175" y="21"/>
      <point x="176" y="14"/>
      <point x="178" y="4" type="curve"/>
      <point x="163" y="-2"/>
      <point x="150" y="-5"/>
      <point x="128" y="-5" type="curve" smooth="yes"/>
      <point x="101" y="-5"/>
      <point x="84" y="7"/>
      <point x="84" y="45" type="curve" smooth="yes"/>
      <point x="84" y="172"/>
      <point x="177" y="372"/>
      <point x="263" y="522" type="curve"/>
      <point x="242" y="518.0"/>
      <point x="212" y="512"/>
      <point x="196" y="512" type="curve" smooth="yes"/>
      <point x="170" y="512.0"/>
      <point x="158.0" y="525.0"/>
      <point x="158" y="547" type="curve" smooth="yes"/>
      <point x="158" y="554"/>
      <point x="160" y="562"/>
      <point x="165" y="570" type="curve"/>
      <point x="258" y="580.0"/>
      <point x="344" y="593"/>
      <point x="445" y="593" type="curve" smooth="yes"/>
      <point x="543.0" y="593.0"/>
      <point x="631.0" y="572.0"/>
    </contour>
  </outline>
</glyph>
<glyph name="uni1265" format="2">
  <advance width="881"/>
  <unicode hex="1265"/>
  <outline>
    <contour>
      <point x="176" y="234" type="curve"/>
      <point x="201" y="236"/>
      <point x="264" y="242"/>
      <point x="331" y="248" type="curve"/>
      <point x="350" y="296" type="line"/>
      <point x="279" y="290"/>
      <point x="197" y="283"/>
      <point x="160" y="280" type="curve"/>
      <point x="95" y="288"/>
      <point x="59" y="251"/>
      <point x="59" y="202" type="curve" smooth="yes"/>
      <point x="59" y="172"/>
      <point x="80" y="151"/>
      <point x="118" y="151" type="curve" smooth="yes"/>
      <point x="129" y="151"/>
      <point x="145" y="153"/>
      <point x="159" y="157" type="curve"/>
      <point x="155" y="185"/>
      <point x="162" y="220"/>
    </contour>
    <contour>
      <point x="369" y="521" type="line"/>
      <point x="341" y="341"/>
      <point x="244.0" y="82.94456289978677"/>
      <point x="244" y="33" type="curve" smooth="yes"/>
      <point x="244" y="7"/>
      <point x="261" y="-5"/>
      <point x="288" y="-5" type="curve" smooth="yes"/>
      <point x="312" y="-5"/>
      <point x="325" y="-2"/>
      <point x="345" y="2" type="curve"/>
      <point x="343" y="12"/>
      <point x="341" y="21"/>
      <point x="341" y="37" type="curve" smooth="yes"/>
      <point x="341" y="110"/>
      <point x="403" y="343"/>
      <point x="445" y="474" type="curve" smooth="yes"/>
      <point x="458" y="515"/>
      <point x="469" y="523"/>
      <point x="505" y="527" type="curve" smooth="yes"/>
      <point x="549" y="533"/>
      <point x="604" y="537"/>
      <point x="658" y="537" type="curve" smooth="yes"/>
      <point x="684" y="537"/>
      <point x="693" y="523"/>
      <point x="693" y="503" type="curve" smooth="yes"/>
      <point x="693" y="385"/>
      <point x="599" y="170"/>
      <point x="599" y="58" type="curve" smooth="yes"/>
      <point x="599" y="23"/>
      <point x="619" y="2"/>
      <point x="651" y="2" type="curve" smooth="yes"/>
      <point x="666" y="2"/>
      <point x="685" y="7"/>
      <point x="697" y="22" type="curve"/>
      <point x="666" y="138"/>
      <point x="786" y="464"/>
      <point x="786" y="524" type="curve" smooth="yes"/>
      <point x="786.0" y="569.0"/>
      <point x="766.0" y="595.0"/>
      <point x="703" y="595" type="curve"/>
      <point x="632" y="595.0"/>
      <point x="423.0" y="572.0"/>
      <point x="280" y="565" type="curve"/>
      <point x="275.0" y="556"/>
      <point x="273.0" y="548"/>
      <point x="273" y="540" type="curve" smooth="yes"/>
      <point x="273.0" y="518.0"/>
      <point x="285" y="505.0"/>
      <point x="311" y="505" type="curve" smooth="yes"/>
      <point x="327.0" y="505.0"/>
      <point x="357.0" y="511.0"/>
      <point x="378" y="515" type="curve"/>
    </contour>
  </outline>
</glyph>
<glyph name="uni1267" format="2">
  <advance width="716"/>
  <unicode hex="1267"/>
  <outline>
    <contour>
      <point x="281" y="-16" type="curve"/>
      <point x="325" y="-12"/>
      <point x="495" y="3"/>
      <point x="567" y="8" type="curve"/>
      <point x="554" y="31" type="line"/>
      <point x="553" y="-45"/>
      <point x="580" y="-69"/>
      <point x="635" y="-69" type="curve" smooth="yes"/>
      <point x="648" y="-69"/>
      <point x="666" y="-67"/>
      <point x="678" y="-63" type="curve"/>
      <point x="669" y="-39"/>
      <point x="665" y="4"/>
      <point x="668" y="31" type="curve"/>
      <point x="635" y="43"/>
      <point x="590" y="57"/>
      <point x="580" y="57" type="curve" smooth="yes"/>
      <point x="553" y="57"/>
      <point x="332" y="34"/>
      <point x="264" y="28" type="curve"/>
      <point x="195" y="41"/>
      <point x="157" y="11"/>
      <point x="157" y="-51" type="curve" smooth="yes"/>
      <point x="157" y="-89"/>
      <point x="179" y="-104"/>
      <point x="211" y="-104" type="curve" smooth="yes"/>
      <point x="238" y="-104"/>
      <point x="260" y="-97"/>
      <point x="274" y="-90" type="curve"/>
      <point x="269" y="-68"/>
      <point x="271" y="-34"/>
    </contour>
    <contour>
      <point x="153" y="521" type="line"/>
      <point x="140" y="427"/>
      <point x="88.0" y="288.907949790795"/>
      <point x="88" y="263" type="curve" smooth="yes"/>
      <point x="88" y="237"/>
      <point x="105" y="225"/>
      <point x="132" y="225" type="curve" smooth="yes"/>
      <point x="156" y="225"/>
      <point x="171" y="227"/>
      <point x="189" y="232" type="curve"/>
      <point x="187" y="242"/>
      <point x="185" y="251"/>
      <point x="185" y="267" type="curve" smooth="yes"/>
      <point x="185" y="302"/>
      <point x="209" y="413"/>
      <point x="229" y="474" type="curve" smooth="yes"/>
      <point x="242" y="515"/>
      <point x="253" y="523"/>
      <point x="289" y="527" type="curve" smooth="yes"/>
      <point x="333" y="533"/>
      <point x="388" y="537"/>
      <point x="442" y="537" type="curve" smooth="yes"/>
      <point x="468" y="537"/>
      <point x="477" y="523"/>
      <point x="477" y="503" type="curve" smooth="yes"/>
      <point x="477" y="385"/>
      <point x="383" y="170"/>
      <point x="383" y="58" type="curve" smooth="yes"/>
      <point x="383" y="23"/>
      <point x="403" y="2"/>
      <point x="435" y="2" type="curve" smooth="yes"/>
      <point x="450" y="2"/>
      <point x="469" y="7"/>
      <point x="481" y="22" type="curve"/>
      <point x="450" y="138"/>
      <point x="570" y="464"/>
      <point x="570" y="524" type="curve" smooth="yes"/>
      <point x="570" y="569"/>
      <point x="550" y="595"/>
      <point x="487" y="595" type="curve"/>
      <point x="416" y="595.0"/>
      <point x="207.0" y="572.0"/>
      <point x="64" y="565" type="curve"/>
      <point x="59.0" y="556"/>
      <point x="57.0" y="548"/>
      <point x="57" y="540" type="curve" smooth="yes"/>
      <point x="57.0" y="518.0"/>
      <point x="69" y="505.0"/>
      <point x="95" y="505" type="curve" smooth="yes"/>
      <point x="111.0" y="505.0"/>
      <point x="141.0" y="511.0"/>
      <point x="162" y="515" type="curve"/>
    </contour>
  </outline>
</glyph>
<glyph name="uni1281" format="2">
  <advance width="823"/>
  <unicode hex="1281"/>
  <outline>
    <contour>
      <point x="396" y="639" type="curve" smooth="yes"/>
      <point x="374" y="639"/>
      <point x="355" y="633"/>
      <point x="341" y="625" type="curve"/>
      <point x="360" y="569"/>
      <point x="262" y="379"/>
      <point x="262" y="330" type="curve" smooth="yes"/>
      <point x="262" y="310"/>
      <point x="275" y="291"/>
      <point x="306" y="291" type="curve" smooth="yes"/>
      <point x="358" y="291"/>
      <point x="392" y="294"/>
      <point x="412" y="294" type="curve" smooth="yes"/>
      <point x="432" y="294"/>
      <point x="441" y="286"/>
      <point x="440" y="271" type="curve" smooth="yes"/>
      <point x="439" y="241"/>
      <point x="318" y="71"/>
      <point x="318" y="26" type="curve" smooth="yes"/>
      <point x="318" y="3"/>
      <point x="338" y="-5"/>
      <point x="363" y="-5" type="curve" smooth="yes"/>
      <point x="383" y="-5"/>
      <point x="409" y="2"/>
      <point x="421" y="14" type="curve"/>
      <point x="401" y="69"/>
      <point x="535" y="259"/>
      <point x="535" y="302" type="curve" smooth="yes"/>
      <point x="535" y="327"/>
      <point x="523" y="340"/>
      <point x="498" y="340" type="curve" smooth="yes"/>
      <point x="465" y="340"/>
      <point x="420" y="334"/>
      <point x="392" y="334" type="curve" smooth="yes"/>
      <point x="363" y="334"/>
      <point x="359" y="344"/>
      <point x="359" y="358" type="curve" smooth="yes"/>
      <point x="359" y="405"/>
      <point x="439" y="575"/>
      <point x="439" y="610" type="curve" smooth="yes"/>
      <point x="439" y="626"/>
      <point x="423" y="639"/>
    </contour>
    <contour>
      <point x="350" y="503" type="line"/>
      <point x="295" y="500"/>
      <point x="210" y="498"/>
      <point x="164" y="498" type="curve"/>
      <point x="90" y="515"/>
      <point x="62" y="467"/>
      <point x="62" y="404" type="curve" smooth="yes"/>
      <point x="62" y="372"/>
      <point x="76" y="357"/>
      <point x="102" y="357" type="curve" smooth="yes"/>
      <point x="122" y="357"/>
      <point x="140" y="360"/>
      <point x="162" y="373" type="curve"/>
      <point x="150" y="405"/>
      <point x="152" y="443"/>
      <point x="179" y="485" type="curve"/>
      <point x="136" y="449" type="line"/>
      <point x="175" y="459"/>
      <point x="254" y="460"/>
      <point x="335" y="461" type="curve"/>
    </contour>
    <contour>
      <point x="689" y="264" type="curve"/>
      <point x="662" y="283" type="line"/>
      <point x="662" y="214"/>
      <point x="673" y="178"/>
      <point x="716" y="178" type="curve" smooth="yes"/>
      <point x="743" y="178"/>
      <point x="761" y="186"/>
      <point x="771" y="196" type="curve"/>
      <point x="755" y="225"/>
      <point x="749" y="290"/>
      <point x="763" y="338" type="curve"/>
      <point x="751" y="345"/>
      <point x="733" y="349"/>
      <point x="712" y="349" type="curve" smooth="yes"/>
      <point x="687" y="349"/>
      <point x="665" y="333"/>
      <point x="663" y="290" type="curve"/>
      <point x="682" y="317" type="line"/>
      <point x="611.0" y="311"/>
      <point x="574.0" y="307"/>
      <point x="509" y="303" type="curve"/>
      <point x="503" y="256" type="line"/>
      <point x="556.0" y="259"/>
      <point x="625.0" y="262"/>
    </contour>
  </outline>
</glyph>
<glyph name="uni1294" format="2">
  <advance width="557"/>
  <unicode hex="1294"/>
  <outline>
    <contour>
      <point x="278" y="190" type="line"/>
      <point x="323" y="228"/>
      <point x="357.0" y="277.02298850574715"/>
      <point x="357" y="303" type="curve" smooth="yes"/>
      <point x="357" y="386"/>
      <point x="171" y="334"/>
      <point x="171" y="384" type="curve" smooth="yes"/>
      <point x="171" y="430"/>
      <point x="258" y="576"/>
      <point x="258" y="613" type="curve" smooth="yes"/>
      <point x="258" y="634"/>
      <point x="247" y="643"/>
      <point x="220" y="643" type="curve" smooth="yes"/>
      <point x="199" y="643"/>
      <point x="183" y="636"/>
      <point x="169" y="625" type="curve"/>
      <point x="176" y="567"/>
      <point x="78" y="397"/>
      <point x="78" y="352" type="curve" smooth="yes"/>
      <point x="78" y="332"/>
      <point x="92" y="315"/>
      <point x="123" y="315" type="curve" smooth="yes"/>
      <point x="241" y="315"/>
      <point x="272" y="310"/>
      <point x="272" y="291" type="curve" smooth="yes"/>
      <point x="272.0" y="263.11538461538464"/>
      <point x="157.0" y="149"/>
      <point x="157.0" y="58" type="curve" smooth="yes"/>
      <point x="157.0" y="31.0"/>
      <point x="170" y="15.0"/>
      <point x="205" y="7" type="curve" smooth="yes"/>
      <point x="237" y="0"/>
      <point x="327" y="-12.0"/>
      <point x="380" y="-12.0" type="curve" smooth="yes"/>
      <point x="420" y="-12.0"/>
      <point x="443" y="-3"/>
      <point x="462" y="19" type="curve" smooth="yes"/>
      <point x="485" y="47"/>
      <point x="493.0" y="92"/>
      <point x="493" y="121" type="curve" smooth="yes"/>
      <point x="493.0" y="151.1153846153846"/>
      <point x="483.0" y="168.96153846153845"/>
      <point x="461" y="179" type="curve" smooth="yes"/>
      <point x="413" y="200"/>
      <point x="308" y="215"/>
      <point x="240" y="219" type="curve"/>
    </contour>
    <contour>
      <point x="238.0" y="77" type="curve" smooth="yes"/>
      <point x="238.0" y="108.0"/>
      <point x="264.0" y="164.0"/>
      <point x="284" y="164.0" type="curve" smooth="yes"/>
      <point x="322" y="164"/>
      <point x="375.593984962406" y="153.0"/>
      <point x="396" y="141" type="curve" smooth="yes"/>
      <point x="403" y="137"/>
      <point x="407" y="130"/>
      <point x="407" y="114" type="curve" smooth="yes"/>
      <point x="407.0" y="90.0"/>
      <point x="400" y="72"/>
      <point x="389" y="57" type="curve" smooth="yes"/>
      <point x="381" y="47"/>
      <point x="369" y="43.0"/>
      <point x="350" y="43" type="curve" smooth="yes"/>
      <point x="322" y="43.0"/>
      <point x="290" y="44.0"/>
      <point x="263" y="49" type="curve" smooth="yes"/>
      <point x="248" y="52.0"/>
      <point x="238" y="59"/>
    </contour>
  </outline>
</glyph>
<glyph name="uni12A3" format="2">
  <advance width="660"/>
  <unicode hex="12A3"/>
  <outline>
    <contour>
      <point x="163" y="626" type="curve"/>
      <point x="165" y="618"/>
      <point x="166" y="607"/>
      <point x="166" y="594" type="curve" smooth="yes"/>
      <point x="166" y="561"/>
      <point x="144" y="509"/>
      <point x="144" y="479" type="curve" smooth="yes"/>
      <point x="144" y="458"/>
      <point x="156" y="445"/>
      <point x="182" y="445" type="curve" smooth="yes"/>
      <point x="247" y="445"/>
      <point x="310" y="455"/>
      <point x="362" y="455" type="curve" smooth="yes"/>
      <point x="370" y="455"/>
      <point x="375" y="452"/>
      <point x="375" y="445" type="curve" smooth="yes"/>
      <point x="375" y="435"/>
      <point x="365" y="423"/>
      <point x="345" y="405" type="curve" smooth="yes"/>
      <point x="261" y="328"/>
      <point x="75" y="206"/>
      <point x="75" y="91" type="curve" smooth="yes"/>
      <point x="75" y="64"/>
      <point x="89" y="55"/>
      <point x="112" y="55" type="curve" smooth="yes"/>
      <point x="141" y="55"/>
      <point x="175" y="64"/>
      <point x="189" y="79" type="curve"/>
      <point x="171" y="202"/>
      <point x="367" y="314"/>
      <point x="457" y="411" type="curve" smooth="yes"/>
      <point x="480" y="436"/>
      <point x="492" y="461"/>
      <point x="492" y="480" type="curve" smooth="yes"/>
      <point x="492" y="499"/>
      <point x="473" y="510"/>
      <point x="443" y="510" type="curve" smooth="yes"/>
      <point x="381" y="510"/>
      <point x="306" y="501"/>
      <point x="251" y="501" type="curve" smooth="yes"/>
      <point x="237" y="501"/>
      <point x="234" y="507"/>
      <point x="234" y="515" type="curve" smooth="yes"/>
      <point x="234" y="541"/>
      <point x="256" y="586"/>
      <point x="256" y="610" type="curve" smooth="yes"/>
      <point x="256" y="628"/>
      <point x="239" y="639"/>
      <point x="212" y="639" type="curve" smooth="yes"/>
      <point x="195" y="639"/>
      <point x="179" y="635"/>
    </contour>
    <contour>
      <point x="450" y="371" type="curve" smooth="yes"/>
      <point x="380" y="371"/>
      <point x="306" y="328"/>
      <point x="255" y="275" type="curve"/>
      <point x="269" y="246" type="line"/>
      <point x="329" y="303"/>
      <point x="380" y="322"/>
      <point x="421" y="322" type="curve" smooth="yes"/>
      <point x="455" y="322"/>
      <point x="474" y="303"/>
      <point x="474" y="266" type="curve" smooth="yes"/>
      <point x="474" y="188"/>
      <point x="442" y="93"/>
      <point x="442" y="34" type="curve" smooth="yes"/>
      <point x="442" y="11"/>
      <point x="454" y="-3"/>
      <point x="485" y="-3" type="curve" smooth="yes"/>
      <point x="499" y="-3"/>
      <point x="531" y="4"/>
      <point x="544" y="17" type="curve"/>
      <point x="519" y="88"/>
      <point x="560" y="221"/>
      <point x="560" y="281" type="curve" smooth="yes"/>
      <point x="560" y="358"/>
      <point x="509" y="371"/>
    </contour>
  </outline>
</glyph>
<glyph name="uni12B2" format="2">
  <advance width="1112"/>
  <unicode hex="12B2"/>
  <outline>
    <contour>
      <point x="222" y="631" type="curve" smooth="yes"/>
      <point x="222" y="658"/>
      <point x="203" y="670"/>
      <point x="175" y="670" type="curve" smooth="yes"/>
      <point x="141" y="670"/>
      <point x="113" y="655"/>
      <point x="106" y="631" type="curve"/>
      <point x="119" y="625"/>
      <point x="124" y="614"/>
      <point x="124" y="593" type="curve" smooth="yes"/>
      <point x="124" y="566"/>
      <point x="96" y="507"/>
      <point x="96" y="472" type="curve" smooth="yes"/>
      <point x="96" y="452"/>
      <point x="110" y="438"/>
      <point x="140" y="438" type="curve" smooth="yes"/>
      <point x="165" y="438"/>
      <point x="191" y="440"/>
      <point x="219" y="440" type="curve" smooth="yes"/>
      <point x="246" y="440"/>
      <point x="255" y="436"/>
      <point x="255" y="418" type="curve" smooth="yes"/>
      <point x="255" y="382"/>
      <point x="127" y="121"/>
      <point x="127" y="39" type="curve"/>
      <point x="224" y="27" type="line"/>
      <point x="224" y="177"/>
      <point x="351" y="380"/>
      <point x="351" y="459" type="curve" smooth="yes"/>
      <point x="351" y="483"/>
      <point x="328" y="487"/>
      <point x="296" y="487" type="curve" smooth="yes"/>
      <point x="261" y="487"/>
      <point x="241" y="487"/>
      <point x="214" y="487" type="curve" smooth="yes"/>
      <point x="191" y="487"/>
      <point x="188" y="491"/>
      <point x="188" y="506" type="curve" smooth="yes"/>
      <point x="188" y="549"/>
      <point x="222" y="594"/>
    </contour>
    <contour>
      <point x="113" y="0" type="curve"/>
      <point x="168" y="3"/>
      <point x="219" y="3"/>
      <point x="248" y="-4" type="curve"/>
      <point x="264" y="26"/>
      <point x="258" y="66"/>
      <point x="212" y="66" type="curve" smooth="yes"/>
      <point x="188" y="66"/>
      <point x="147" y="63"/>
      <point x="129" y="58" type="curve" smooth="yes"/>
      <point x="102" y="51"/>
      <point x="90" y="27"/>
    </contour>
    <contour>
      <point x="502" y="507" type="curve" smooth="yes"/>
      <point x="443" y="507"/>
      <point x="399" y="501"/>
      <point x="305" y="483" type="curve"/>
      <point x="306" y="428" type="line"/>
      <point x="387" y="449"/>
      <point x="427" y="449"/>
      <point x="463" y="449" type="curve" smooth="yes"/>
      <point x="509" y="449"/>
      <point x="522" y="430"/>
      <point x="522" y="386" type="curve" smooth="yes"/>
      <point x="522" y="293"/>
      <point x="441" y="106"/>
      <point x="441" y="37" type="curve" smooth="yes"/>
      <point x="441" y="7"/>
      <point x="465" y="-5"/>
      <point x="496" y="-5" type="curve" smooth="yes"/>
      <point x="513" y="-5"/>
      <point x="534" y="0"/>
      <point x="546" y="15" type="curve"/>
      <point x="518" y="91"/>
      <point x="617" y="347"/>
      <point x="617" y="424" type="curve" smooth="yes"/>
      <point x="617" y="471"/>
      <point x="589" y="507"/>
    </contour>
    <contour>
      <point x="775" y="167" type="curve" smooth="yes"/>
      <point x="775" y="214"/>
      <point x="862" y="413"/>
      <point x="862" y="453" type="curve" smooth="yes"/>
      <point x="862" y="484"/>
      <point x="846" y="502"/>
      <point x="814" y="502" type="curve" smooth="yes"/>
      <point x="791" y="502"/>
      <point x="774" y="490"/>
      <point x="767" y="474" type="curve"/>
      <point x="788" y="433"/>
      <point x="684" y="219"/>
      <point x="684" y="144" type="curve" smooth="yes"/>
      <point x="684" y="88"/>
      <point x="713" y="63"/>
      <point x="776" y="63" type="curve" smooth="yes"/>
      <point x="824" y="63"/>
      <point x="880" y="83"/>
      <point x="943" y="124" type="curve"/>
      <point x="933" y="132" type="line"/>
      <point x="932" y="56"/>
      <point x="952" y="32"/>
      <point x="1007" y="32" type="curve" smooth="yes"/>
      <point x="1020" y="32"/>
      <point x="1038" y="34"/>
      <point x="1050" y="38" type="curve"/>
      <point x="1040" y="66"/>
      <point x="1039" y="119"/>
      <point x="1043" y="152" type="curve"/>
      <point x="1010" y="164"/>
      <point x="966" y="183"/>
      <point x="956" y="183" type="curve" smooth="yes"/>
      <point x="935" y="183"/>
      <point x="865" y="125"/>
      <point x="819" y="125" type="curve" smooth="yes"/>
      <point x="790" y="125"/>
      <point x="775" y="140"/>
    </contour>
    <contour>
      <point x="749" y="338" type="line"/>
      <point x="726" y="338"/>
      <point x="612" y="311"/>
      <point x="571" y="300" type="curve"/>
      <point x="572" y="253" type="line"/>
      <point x="614" y="264"/>
      <point x="698" y="281"/>
      <point x="736" y="286" type="curve"/>
    </contour>
  </outline>
</glyph>
<glyph name="uni12CC" format="2">
  <advance width="851"/>
  <unicode hex="12CC"/>
  <outline>
    <contour>
      <point x="80" y="370" type="curve" smooth="yes"/>
      <point x="80" y="273"/>
      <point x="157" y="220"/>
      <point x="270" y="220" type="curve" smooth="yes"/>
      <point x="315" y="220"/>
      <point x="373" y="231"/>
      <point x="408" y="253" type="curve"/>
      <point x="376" y="245" type="line"/>
      <point x="505" y="258"/>
      <point x="624" y="289"/>
      <point x="698" y="363" type="curve" smooth="yes"/>
      <point x="743" y="408"/>
      <point x="777" y="466"/>
      <point x="777" y="517" type="curve" smooth="yes"/>
      <point x="777" y="594"/>
      <point x="716" y="656"/>
      <point x="530" y="656" type="curve" smooth="yes"/>
      <point x="367" y="656"/>
      <point x="252" y="618"/>
      <point x="183" y="565" type="curve" smooth="yes"/>
      <point x="128" y="522"/>
      <point x="80" y="463"/>
    </contour>
    <contour>
      <point x="305.0" y="58" type="curve" smooth="yes"/>
      <point x="305" y="29"/>
      <point x="320.0" y="10"/>
      <point x="362" y="1" type="curve" smooth="yes"/>
      <point x="394" y="-6"/>
      <point x="484" y="-18.0"/>
      <point x="537" y="-18.0" type="curve" smooth="yes"/>
      <point x="577" y="-18.0"/>
      <point x="600" y="-9"/>
      <point x="619" y="13" type="curve" smooth="yes"/>
      <point x="642" y="41"/>
      <point x="650.0" y="86"/>
      <point x="650" y="115" type="curve" smooth="yes"/>
      <point x="650.0" y="145.1153846153846"/>
      <point x="641.0" y="165.19230769230768"/>
      <point x="618" y="173" type="curve" smooth="yes"/>
      <point x="563" y="189"/>
      <point x="448" y="202"/>
      <point x="373" y="205" type="curve"/>
      <point x="409" y="193" type="line"/>
      <point x="420" y="269"/>
      <point x="497" y="545"/>
      <point x="506" y="567" type="curve" smooth="yes"/>
      <point x="515" y="590"/>
      <point x="531" y="598"/>
      <point x="560" y="598" type="curve" smooth="yes"/>
      <point x="645" y="598"/>
      <point x="690" y="558"/>
      <point x="690" y="508" type="curve" smooth="yes"/>
      <point x="690" y="383"/>
      <point x="542" y="304"/>
      <point x="408" y="304" type="curve"/>
      <point x="379" y="297"/>
      <point x="346" y="291"/>
      <point x="289" y="291" type="curve" smooth="yes"/>
      <point x="209" y="291"/>
      <point x="168" y="326"/>
      <point x="168" y="386" type="curve" smooth="yes"/>
      <point x="168" y="426"/>
      <point x="186" y="483"/>
      <point x="230" y="522" type="curve" smooth="yes"/>
      <point x="265" y="553"/>
      <point x="331" y="585"/>
      <point x="393" y="585" type="curve" smooth="yes"/>
      <point x="415" y="585"/>
      <point x="424" y="577"/>
      <point x="424" y="561" type="curve" smooth="yes"/>
      <point x="424.0" y="533.5252100840336"/>
      <point x="305.0" y="137"/>
    </contour>
    <contour>
      <point x="398.0" y="71" type="curve" smooth="yes"/>
      <point x="398.0" y="103"/>
      <point x="404" y="148.0"/>
      <point x="417" y="148.0" type="curve" smooth="yes"/>
      <point x="468" y="148"/>
      <point x="528" y="141"/>
      <point x="548" y="136" type="curve" smooth="yes"/>
      <point x="561" y="133"/>
      <point x="564" y="124"/>
      <point x="564" y="108" type="curve" smooth="yes"/>
      <point x="564.0" y="84.0"/>
      <point x="557" y="66"/>
      <point x="546" y="51" type="curve" smooth="yes"/>
      <point x="538" y="41"/>
      <point x="526" y="37.0"/>
      <point x="507" y="37" type="curve" smooth="yes"/>
      <point x="480.0" y="37"/>
      <point x="449" y="38.0"/>
      <point x="423" y="43" type="curve" smooth="yes"/>
      <point x="408" y="46.0"/>
      <point x="398" y="53"/>
    </contour>
  </outline>
</glyph>
<glyph name="uni12EB" format="2">
  <advance width="620"/>
  <unicode hex="12EB"/>
  <outline>
    <contour>
      <point x="344" y="230" type="line"/>
      <point x="452" y="347"/>
      <point x="548" y="485"/>
      <point x="548" y="575" type="curve" smooth="yes"/>
      <point x="548" y="621"/>
      <point x="515" y="651"/>
      <point x="448" y="651" type="curve" smooth="yes"/>
      <point x="388" y="651"/>
      <point x="207" y="618"/>
      <point x="160" y="608" type="curve"/>
      <point x="109" y="615"/>
      <point x="86" y="589"/>
      <point x="94" y="556" type="curve"/>
      <point x="114" y="546"/>
      <point x="133" y="529"/>
      <point x="162" y="479" type="curve" smooth="yes"/>
      <point x="232" y="358"/>
      <point x="326" y="174"/>
      <point x="326" y="112" type="curve"/>
      <point x="326" y="54"/>
      <point x="299" y="41"/>
      <point x="137" y="41" type="curve" smooth="yes"/>
      <point x="69" y="41"/>
      <point x="40" y="-6"/>
      <point x="40" y="-49" type="curve" smooth="yes"/>
      <point x="40" y="-79"/>
      <point x="61" y="-101"/>
      <point x="100" y="-101" type="curve" smooth="yes"/>
      <point x="112" y="-101"/>
      <point x="125" y="-99"/>
      <point x="140" y="-94" type="curve"/>
      <point x="141" y="-61"/>
      <point x="152" y="-26"/>
      <point x="165" y="-6" type="curve"/>
      <point x="340" y="1"/>
      <point x="418" y="32"/>
      <point x="418" y="109" type="curve"/>
      <point x="418" y="207"/>
      <point x="229" y="501"/>
      <point x="229" y="550" type="curve" smooth="yes"/>
      <point x="229" y="563"/>
      <point x="243" y="573"/>
      <point x="267" y="579" type="curve" smooth="yes"/>
      <point x="303" y="588"/>
      <point x="379" y="597"/>
      <point x="421" y="597" type="curve" smooth="yes"/>
      <point x="444" y="597"/>
      <point x="457" y="582"/>
      <point x="457" y="563" type="curve" smooth="yes"/>
      <point x="457" y="523"/>
      <point x="403" y="401"/>
      <point x="330" y="314" type="curve"/>
    </contour>
  </outline>
</glyph>
<glyph name="uni12EE" format="2">
  <advance width="793"/>
  <unicode hex="12EE"/>
  <outline>
    <contour>
      <point x="338" y="-5" type="curve" smooth="yes"/>
      <point x="371" y="-5"/>
      <point x="390" y="11"/>
      <point x="407" y="42" type="curve"/>
      <point x="375" y="60"/>
      <point x="349" y="144"/>
      <point x="319" y="241" type="curve"/>
      <point x="423" y="354"/>
      <point x="514" y="488"/>
      <point x="514" y="575" type="curve" smooth="yes"/>
      <point x="514" y="621"/>
      <point x="481" y="651"/>
      <point x="414" y="651" type="curve" smooth="yes"/>
      <point x="354" y="651"/>
      <point x="173" y="618"/>
      <point x="126" y="608" type="curve"/>
      <point x="75" y="615"/>
      <point x="52" y="589"/>
      <point x="60" y="556" type="curve"/>
      <point x="80" y="546"/>
      <point x="97" y="529"/>
      <point x="128" y="479" type="curve" smooth="yes"/>
      <point x="210" y="346"/>
      <point x="258" y="163"/>
      <point x="287" y="43" type="curve" smooth="yes"/>
      <point x="294" y="14"/>
      <point x="311" y="-5"/>
    </contour>
    <contour>
      <point x="195" y="550" type="curve" smooth="yes"/>
      <point x="195" y="563"/>
      <point x="209" y="573"/>
      <point x="233" y="579" type="curve" smooth="yes"/>
      <point x="269" y="588"/>
      <point x="345" y="597"/>
      <point x="387" y="597" type="curve" smooth="yes"/>
      <point x="410" y="597"/>
      <point x="423" y="582"/>
      <point x="423" y="563" type="curve" smooth="yes"/>
      <point x="423" y="523"/>
      <point x="369" y="401"/>
      <point x="296" y="314" type="curve"/>
      <point x="255" y="435"/>
      <point x="195" y="520"/>
    </contour>
    <contour>
      <point x="456" y="463" type="line"/>
      <point x="498.0" y="470.6666666666667"/>
      <point x="582.0" y="482.5151515151515"/>
      <point x="620" y="486" type="curve"/>
      <point x="609" y="509" type="line"/>
      <point x="605" y="433"/>
      <point x="632" y="409"/>
      <point x="683" y="409" type="curve" smooth="yes"/>
      <point x="696" y="409"/>
      <point x="714" y="411"/>
      <point x="726" y="415" type="curve"/>
      <point x="717" y="439"/>
      <point x="713" y="482"/>
      <point x="716" y="509" type="curve"/>
      <point x="685" y="520"/>
      <point x="642" y="538"/>
      <point x="633" y="538" type="curve" smooth="yes"/>
      <point x="610.0" y="538.0"/>
      <point x="496.0" y="518.1052631578947"/>
      <point x="455" y="510" type="curve"/>
    </contour>
  </outline>
</glyph>
<glyph name="uni12F3" format="2">
  <advance width="646"/>
  <unicode hex="12F3"/>
  <outline>
    <contour>
      <point x="320" y="248" type="line"/>
      <point x="431" y="360"/>
      <point x="546" y="489"/>
      <point x="546" y="575" type="curve" smooth="yes"/>
      <point x="546" y="621"/>
      <point x="513" y="651"/>
      <point x="446" y="651" type="curve" smooth="yes"/>
      <point x="389" y="651"/>
      <point x="207" y="618"/>
      <point x="163" y="614" type="curve"/>
      <point x="165" y="558" type="line"/>
      <point x="238" y="571"/>
      <point x="376" y="597"/>
      <point x="427" y="597" type="curve" smooth="yes"/>
      <point x="450" y="597"/>
      <point x="463" y="582"/>
      <point x="463" y="563" type="curve" smooth="yes"/>
      <point x="463" y="523"/>
      <point x="379" y="401"/>
      <point x="295" y="317" type="curve"/>
    </contour>
    <contour>
      <point x="197" y="177" type="curve"/>
      <point x="241" y="181"/>
      <point x="381" y="195"/>
      <point x="453" y="200" type="curve"/>
      <point x="448" y="221" type="line"/>
      <point x="423" y="162"/>
      <point x="391" y="59"/>
      <point x="391" y="19" type="curve" smooth="yes"/>
      <point x="391" y="-13"/>
      <point x="412" y="-29"/>
      <point x="443" y="-29" type="curve" smooth="yes"/>
      <point x="456" y="-29"/>
      <point x="474" y="-27"/>
      <point x="486" y="-23" type="curve"/>
      <point x="482" y="38"/>
      <point x="508" y="156"/>
      <point x="541" y="224" type="curve"/>
      <point x="520" y="238"/>
      <point x="482" y="248"/>
      <point x="473" y="248" type="curve" smooth="yes"/>
      <point x="445" y="248"/>
      <point x="250" y="227"/>
      <point x="180" y="221" type="curve"/>
      <point x="111" y="234"/>
      <point x="73" y="204"/>
      <point x="73" y="142" type="curve" smooth="yes"/>
      <point x="73" y="104"/>
      <point x="95" y="89"/>
      <point x="127" y="89" type="curve" smooth="yes"/>
      <point x="154" y="89"/>
      <point x="176" y="96"/>
      <point x="190" y="103" type="curve"/>
      <point x="185" y="125"/>
      <point x="187" y="159"/>
    </contour>
    <contour>
      <point x="338" y="206" type="line"/>
      <point x="336" y="233"/>
      <point x="335" y="262"/>
      <point x="335" y="291" type="curve"/>
      <point x="315" y="380"/>
      <point x="275" y="464"/>
      <point x="239" y="529" type="curve" smooth="yes"/>
      <point x="203" y="594"/>
      <point x="188" y="614"/>
      <point x="163" y="614" type="curve" smooth="yes"/>
      <point x="130" y="614"/>
      <point x="99" y="592"/>
      <point x="99" y="564" type="curve"/>
      <point x="110" y="561"/>
      <point x="129" y="548"/>
      <point x="163" y="494" type="curve" smooth="yes"/>
      <point x="209" y="421"/>
      <point x="255" y="308"/>
      <point x="255" y="265" type="curve" smooth="yes"/>
      <point x="255" y="246"/>
      <point x="255" y="226"/>
      <point x="255" y="206" type="curve"/>
    </contour>
  </outline>
</glyph>
<glyph name="uni12F6" format="2">
  <advance width="665"/>
  <unicode hex="12F6"/>
  <outline>
    <contour>
      <point x="329" y="248" type="line"/>
      <point x="440" y="360"/>
      <point x="555" y="489"/>
      <point x="555" y="575" type="curve" smooth="yes"/>
      <point x="555" y="621"/>
      <point x="522" y="651"/>
      <point x="455" y="651" type="curve" smooth="yes"/>
      <point x="398" y="651"/>
      <point x="216" y="618"/>
      <point x="172" y="614" type="curve"/>
      <point x="174" y="558" type="line"/>
      <point x="247" y="571"/>
      <point x="385" y="597"/>
      <point x="436" y="597" type="curve" smooth="yes"/>
      <point x="459" y="597"/>
      <point x="472" y="582"/>
      <point x="472" y="563" type="curve" smooth="yes"/>
      <point x="472" y="523"/>
      <point x="388" y="401"/>
      <point x="304" y="317" type="curve"/>
    </contour>
    <contour>
      <point x="347" y="206" type="line"/>
      <point x="345" y="233"/>
      <point x="344" y="262"/>
      <point x="344" y="291" type="curve"/>
      <point x="324" y="380"/>
      <point x="284" y="464"/>
      <point x="248" y="529" type="curve" smooth="yes"/>
      <point x="212" y="594"/>
      <point x="197" y="614"/>
      <point x="172" y="614" type="curve" smooth="yes"/>
      <point x="139" y="614"/>
      <point x="108" y="592"/>
      <point x="108" y="564" type="curve"/>
      <point x="119" y="561"/>
      <point x="138" y="548"/>
      <point x="172" y="494" type="curve" smooth="yes"/>
      <point x="218" y="421"/>
      <point x="264" y="308"/>
      <point x="264" y="265" type="curve" smooth="yes"/>
      <point x="264" y="246"/>
      <point x="264" y="226"/>
      <point x="264" y="206" type="curve"/>
    </contour>
    <contour>
      <point x="475" y="200" type="curve"/>
      <point x="471" y="219" type="line"/>
      <point x="467" y="143"/>
      <point x="494" y="119"/>
      <point x="545" y="119" type="curve" smooth="yes"/>
      <point x="558" y="119"/>
      <point x="576" y="121"/>
      <point x="588" y="125" type="curve"/>
      <point x="579" y="149"/>
      <point x="575" y="192"/>
      <point x="578" y="219" type="curve"/>
      <point x="547" y="230"/>
      <point x="504" y="248"/>
      <point x="495" y="248" type="curve" smooth="yes"/>
      <point x="467" y="248"/>
      <point x="259" y="228"/>
      <point x="189" y="221" type="curve" smooth="yes"/>
      <point x="102" y="212"/>
      <point x="82" y="94"/>
      <point x="82" y="32" type="curve" smooth="yes"/>
      <point x="82" y="-6"/>
      <point x="104" y="-21"/>
      <point x="136" y="-21" type="curve" smooth="yes"/>
      <point x="158" y="-21"/>
      <point x="172" y="-16"/>
      <point x="186" y="-9" type="curve"/>
      <point x="182" y="3"/>
      <point x="176" y="20"/>
      <point x="176" y="48" type="curve" smooth="yes"/>
      <point x="176" y="86"/>
      <point x="182" y="131"/>
      <point x="206" y="177" type="curve"/>
      <point x="250" y="181"/>
      <point x="403" y="195"/>
    </contour>
  </outline>
</glyph>
<glyph name="uni1314" format="2">
  <advance width="627"/>
  <unicode hex="1314"/>
  <outline>
    <contour>
      <point x="225" y="-4"/>
      <point x="406" y="19"/>
      <point x="497" y="19" type="curve" smooth="yes"/>
      <point x="522" y="19"/>
      <point x="535" y="33"/>
      <point x="535" y="57" type="curve" smooth="yes"/>
      <point x="535" y="71"/>
      <point x="527" y="131"/>
      <point x="529" y="167" type="curve"/>
      <point x="514" y="173"/>
      <point x="500" y="181"/>
      <point x="473" y="181" type="curve" smooth="yes"/>
      <point x="437" y="181"/>
      <point x="419" y="155"/>
      <point x="435" y="72" type="curve"/>
      <point x="381" y="64"/>
      <point x="228" y="46"/>
      <point x="127" y="41" type="curve" smooth="yes"/>
      <point x="98" y="39"/>
      <point x="69" y="-17"/>
      <point x="69" y="-63" type="curve" smooth="yes"/>
      <point x="69" y="-88"/>
      <point x="104" y="-104"/>
      <point x="169" y="-94" type="curve"/>
      <point x="170" y="-62"/>
      <point x="181" y="-28"/>
      <point x="194" y="-8" type="curve"/>
    </contour>
    <contour>
      <point x="503" y="534" type="curve" smooth="yes"/>
      <point x="503" y="592"/>
      <point x="457" y="617"/>
      <point x="399" y="617" type="curve" smooth="yes"/>
      <point x="327" y="617"/>
      <point x="225" y="590"/>
      <point x="134" y="556" type="curve"/>
      <point x="191" y="567" type="line"/>
      <point x="170" y="574"/>
      <point x="152" y="578"/>
      <point x="137" y="578" type="curve" smooth="yes"/>
      <point x="89" y="578"/>
      <point x="71" y="549"/>
      <point x="71" y="507" type="curve" smooth="yes"/>
      <point x="71" y="454"/>
      <point x="89" y="428"/>
      <point x="134" y="428" type="curve" smooth="yes"/>
      <point x="151" y="428"/>
      <point x="170" y="433"/>
      <point x="191" y="441" type="curve"/>
      <point x="184" y="470"/>
      <point x="180" y="503"/>
      <point x="204" y="559" type="curve"/>
      <point x="158" y="512" type="line"/>
      <point x="237" y="546"/>
      <point x="314" y="567"/>
      <point x="360" y="567" type="curve" smooth="yes"/>
      <point x="397" y="567"/>
      <point x="408" y="550"/>
      <point x="408" y="524" type="curve" smooth="yes"/>
      <point x="408" y="426"/>
      <point x="228" y="140"/>
      <point x="228" y="35" type="curve"/>
      <point x="329" y="18" type="line"/>
      <point x="302" y="114"/>
      <point x="503" y="445"/>
    </contour>
  </outline>
</glyph>
<glyph name="uni1315" format="2">
  <advance width="826"/>
  <unicode hex="1315"/>
  <outline>
    <contour>
      <point x="610" y="669"/>
      <point x="519" y="550"/>
      <point x="519" y="471" type="curve" smooth="yes"/>
      <point x="519" y="440"/>
      <point x="530" y="422"/>
      <point x="559" y="422" type="curve" smooth="yes"/>
      <point x="597" y="422"/>
      <point x="656" y="449"/>
      <point x="716" y="460" type="curve"/>
      <point x="695" y="477" type="line"/>
      <point x="681" y="410"/>
      <point x="714" y="383"/>
      <point x="800" y="397" type="curve"/>
      <point x="788" y="426"/>
      <point x="785" y="456"/>
      <point x="783" y="480" type="curve"/>
      <point x="761" y="486"/>
      <point x="739" y="493"/>
      <point x="720" y="496" type="curve" smooth="yes"/>
      <point x="701" y="500"/>
      <point x="692" y="500"/>
      <point x="671" y="494" type="curve" smooth="yes"/>
      <point x="639" y="485"/>
      <point x="613" y="477"/>
      <point x="562" y="467" type="curve"/>
      <point x="615" y="455" type="line"/>
      <point x="606" y="468"/>
      <point x="603" y="475"/>
      <point x="603" y="489" type="curve" smooth="yes"/>
      <point x="603" y="525"/>
      <point x="651" y="601"/>
      <point x="706" y="621" type="curve"/>
      <point x="697" y="655"/>
      <point x="685" y="669"/>
      <point x="658" y="669" type="curve" smooth="yes"/>
    </contour>
    <contour>
      <point x="495" y="534" type="curve" smooth="yes"/>
      <point x="495" y="592"/>
      <point x="449" y="617"/>
      <point x="391" y="617" type="curve" smooth="yes"/>
      <point x="319" y="617"/>
      <point x="217" y="590"/>
      <point x="126" y="556" type="curve"/>
      <point x="183" y="567" type="line"/>
      <point x="162" y="574"/>
      <point x="144" y="578"/>
      <point x="129" y="578" type="curve" smooth="yes"/>
      <point x="81" y="578"/>
      <point x="63" y="549"/>
      <point x="63" y="507" type="curve" smooth="yes"/>
      <point x="63" y="454"/>
      <point x="81" y="428"/>
      <point x="126" y="428" type="curve" smooth="yes"/>
      <point x="143" y="428"/>
      <point x="162" y="433"/>
      <point x="183" y="441" type="curve"/>
      <point x="176" y="470"/>
      <point x="172" y="503"/>
      <point x="196" y="559" type="curve"/>
      <point x="150" y="512" type="line"/>
      <point x="229" y="546"/>
      <point x="306" y="567"/>
      <point x="352" y="567" type="curve" smooth="yes"/>
      <point x="389" y="567"/>
      <point x="400" y="550"/>
      <point x="400" y="524" type="curve" smooth="yes"/>
      <point x="400" y="426"/>
      <point x="220" y="140"/>
      <point x="220" y="35" type="curve" smooth="yes"/>
      <point x="220" y="7"/>
      <point x="241" y="-3"/>
      <point x="261" y="-3" type="curve" smooth="yes"/>
      <point x="287" y="-3"/>
      <point x="306" y="4"/>
      <point x="321" y="18" type="curve"/>
      <point x="294" y="114"/>
      <point x="495" y="445"/>
    </contour>
  </outline>
</glyph>
<glyph name="uni1322" format="2">
  <advance width="1251"/>
  <unicode hex="1322"/>
  <outline>
    <contour>
      <point x="202" y="513" type="curve"/>
      <point x="212" y="385"/>
      <point x="77" y="92"/>
      <point x="77" y="45" type="curve" smooth="yes"/>
      <point x="77" y="17"/>
      <point x="94" y="4"/>
      <point x="120" y="4" type="curve" smooth="yes"/>
      <point x="147" y="4"/>
      <point x="165" y="8"/>
      <point x="183" y="14" type="curve"/>
      <point x="181" y="24"/>
      <point x="179" y="33"/>
      <point x="179" y="49" type="curve" smooth="yes"/>
      <point x="179" y="129"/>
      <point x="296" y="425"/>
      <point x="296" y="499" type="curve" smooth="yes"/>
      <point x="296" y="519"/>
      <point x="284" y="528"/>
      <point x="260" y="528" type="curve" smooth="yes"/>
      <point x="237" y="528"/>
      <point x="216" y="526"/>
    </contour>
    <contour>
      <point x="568" y="550" type="curve" smooth="yes"/>
      <point x="544" y="550"/>
      <point x="332" y="531"/>
      <point x="224" y="531" type="curve" smooth="yes"/>
      <point x="193" y="531"/>
      <point x="176" y="513"/>
      <point x="176" y="491" type="curve" smooth="yes"/>
      <point x="176" y="471"/>
      <point x="186" y="456"/>
      <point x="199" y="450" type="curve"/>
      <point x="255" y="472"/>
      <point x="403" y="492"/>
      <point x="495" y="492" type="curve" smooth="yes"/>
      <point x="521" y="492"/>
      <point x="530" y="478"/>
      <point x="530" y="458" type="curve" smooth="yes"/>
      <point x="530" y="358"/>
      <point x="427" y="146"/>
      <point x="427" y="41" type="curve" smooth="yes"/>
      <point x="427" y="6"/>
      <point x="445" y="-15"/>
      <point x="479" y="-15" type="curve" smooth="yes"/>
      <point x="503" y="-15"/>
      <point x="520" y="-7"/>
      <point x="534" y="6" type="curve"/>
      <point x="529" y="22"/>
      <point x="527" y="42"/>
      <point x="527" y="64" type="curve" smooth="yes"/>
      <point x="527" y="180"/>
      <point x="622" y="443"/>
      <point x="622" y="499" type="curve" smooth="yes"/>
      <point x="622" y="532"/>
      <point x="605" y="550"/>
    </contour>
    <contour>
      <point x="880" y="126" type="curve" smooth="yes"/>
      <point x="880" y="239"/>
      <point x="915" y="422"/>
      <point x="915" y="492" type="curve" smooth="yes"/>
      <point x="915" y="538"/>
      <point x="887" y="559"/>
      <point x="832" y="559" type="curve" smooth="yes"/>
      <point x="757" y="559"/>
      <point x="669" y="551"/>
      <point x="579" y="547" type="curve"/>
      <point x="554" y="475" type="line"/>
      <point x="643" y="489"/>
      <point x="698" y="492"/>
      <point x="754" y="492" type="curve" smooth="yes"/>
      <point x="800" y="492"/>
      <point x="823" y="477"/>
      <point x="823" y="437" type="curve" smooth="yes"/>
      <point x="823" y="330"/>
      <point x="784" y="150"/>
      <point x="784" y="103" type="curve" smooth="yes"/>
      <point x="784" y="47"/>
      <point x="813" y="22"/>
      <point x="876" y="22" type="curve" smooth="yes"/>
      <point x="936" y="22"/>
      <point x="996" y="47"/>
      <point x="1083" y="103" type="curve"/>
      <point x="1073" y="111" type="line"/>
      <point x="1072" y="35"/>
      <point x="1092" y="11"/>
      <point x="1147" y="11" type="curve" smooth="yes"/>
      <point x="1160" y="11"/>
      <point x="1178" y="13"/>
      <point x="1190" y="17" type="curve"/>
      <point x="1180" y="45"/>
      <point x="1179" y="98"/>
      <point x="1183" y="131" type="curve"/>
      <point x="1153" y="142"/>
      <point x="1115" y="162"/>
      <point x="1106" y="162" type="curve" smooth="yes"/>
      <point x="1078" y="162"/>
      <point x="989" y="84"/>
      <point x="921" y="84" type="curve" smooth="yes"/>
      <point x="894" y="84"/>
      <point x="880" y="99"/>
    </contour>
  </outline>
</glyph>
<glyph name="uni1323" format="2">
  <advance width="957"/>
  <unicode hex="1323"/>
  <outline>
    <contour>
      <point x="157" y="444" type="curve"/>
      <point x="162" y="379"/>
      <point x="86" y="230"/>
      <point x="86" y="206" type="curve" smooth="yes"/>
      <point x="86" y="178"/>
      <point x="103" y="165"/>
      <point x="129" y="165" type="curve" smooth="yes"/>
      <point x="156" y="165"/>
      <point x="174" y="169"/>
      <point x="192" y="175" type="curve"/>
      <point x="189" y="185"/>
      <point x="188" y="194"/>
      <point x="188" y="204" type="curve" smooth="yes"/>
      <point x="188" y="249"/>
      <point x="246" y="394"/>
      <point x="246" y="430" type="curve" smooth="yes"/>
      <point x="246" y="450"/>
      <point x="234" y="459"/>
      <point x="210" y="459" type="curve" smooth="yes"/>
      <point x="189" y="459"/>
      <point x="171" y="453"/>
    </contour>
    <contour>
      <point x="493" y="550" type="curve" smooth="yes"/>
      <point x="469" y="550"/>
      <point x="257" y="531"/>
      <point x="149" y="531" type="curve" smooth="yes"/>
      <point x="118" y="531"/>
      <point x="101" y="513"/>
      <point x="101" y="491" type="curve" smooth="yes"/>
      <point x="101" y="471"/>
      <point x="111" y="456"/>
      <point x="124" y="450" type="curve"/>
      <point x="180" y="472"/>
      <point x="328" y="492"/>
      <point x="420" y="492" type="curve" smooth="yes"/>
      <point x="446" y="492"/>
      <point x="455" y="478"/>
      <point x="455" y="458" type="curve" smooth="yes"/>
      <point x="455" y="358"/>
      <point x="352" y="146"/>
      <point x="352" y="41" type="curve" smooth="yes"/>
      <point x="352" y="6"/>
      <point x="370" y="-15"/>
      <point x="404" y="-15" type="curve" smooth="yes"/>
      <point x="428" y="-15"/>
      <point x="445" y="-7"/>
      <point x="459" y="6" type="curve"/>
      <point x="454" y="22"/>
      <point x="452" y="42"/>
      <point x="452" y="64" type="curve" smooth="yes"/>
      <point x="452" y="180"/>
      <point x="547" y="443"/>
      <point x="547" y="499" type="curve" smooth="yes"/>
      <point x="547" y="532"/>
      <point x="530" y="550"/>
    </contour>
    <contour>
      <point x="504" y="547" type="curve"/>
      <point x="479" y="475" type="line"/>
      <point x="568" y="489"/>
      <point x="623" y="492"/>
      <point x="679" y="492" type="curve" smooth="yes"/>
      <point x="725" y="492"/>
      <point x="748" y="477"/>
      <point x="748" y="437" type="curve" smooth="yes"/>
      <point x="748" y="324"/>
      <point x="711" y="132"/>
      <point x="711" y="82" type="curve" smooth="yes"/>
      <point x="711" y="47"/>
      <point x="733" y="26"/>
      <point x="765" y="26" type="curve" smooth="yes"/>
      <point x="782" y="26"/>
      <point x="805" y="31"/>
      <point x="818" y="47" type="curve"/>
      <point x="811" y="63"/>
      <point x="806" y="82"/>
      <point x="806" y="104" type="curve" smooth="yes"/>
      <point x="806" y="223"/>
      <point x="840" y="418"/>
      <point x="840" y="492" type="curve" smooth="yes"/>
      <point x="840" y="538"/>
      <point x="812" y="559"/>
      <point x="757" y="559" type="curve" smooth="yes"/>
      <point x="682" y="559"/>
      <point x="594" y="551"/>
    </contour>
  </outline>
</glyph>
<glyph name="uni134C" format="2">
  <advance width="869"/>
  <unicode hex="134C"/>
  <outline>
    <contour>
      <point x="674" y="27" type="curve" smooth="yes"/>
      <point x="715" y="27"/>
      <point x="740" y="-8"/>
      <point x="740" y="-41" type="curve" smooth="yes"/>
      <point x="740" y="-64"/>
      <point x="720" y="-87"/>
      <point x="684" y="-87" type="curve" smooth="yes"/>
      <point x="623" y="-87"/>
      <point x="553" y="-37"/>
      <point x="553" y="-14" type="curve" smooth="yes"/>
      <point x="553" y="2"/>
      <point x="621" y="27"/>
    </contour>
    <contour>
      <point x="463" y="25" type="line"/>
      <point x="492" y="-97"/>
      <point x="598" y="-151"/>
      <point x="672" y="-151" type="curve" smooth="yes"/>
      <point x="756" y="-151"/>
      <point x="829" y="-93"/>
      <point x="829" y="-37" type="curve" smooth="yes"/>
      <point x="829" y="16"/>
      <point x="769" y="94"/>
      <point x="687" y="94" type="curve" smooth="yes"/>
      <point x="604" y="94"/>
      <point x="488" y="46"/>
      <point x="433" y="46" type="curve" smooth="yes"/>
      <point x="421" y="46"/>
      <point x="414" y="48"/>
      <point x="407" y="49" type="curve"/>
      <point x="429" y="159"/>
      <point x="455" y="350"/>
      <point x="455" y="438" type="curve" smooth="yes"/>
      <point x="455" y="480"/>
      <point x="444" y="497"/>
      <point x="429" y="502" type="curve"/>
      <point x="496" y="539"/>
      <point x="552" y="561"/>
      <point x="576" y="561" type="curve"/>
      <point x="562" y="508"/>
      <point x="594" y="486"/>
      <point x="671" y="498" type="curve"/>
      <point x="667" y="516"/>
      <point x="677" y="563"/>
      <point x="687" y="585" type="curve"/>
      <point x="673" y="606"/>
      <point x="635" y="627"/>
      <point x="597" y="635" type="curve"/>
      <point x="499" y="635"/>
      <point x="192" y="432"/>
      <point x="109" y="317" type="curve" smooth="yes"/>
      <point x="84" y="283"/>
      <point x="77" y="226"/>
      <point x="77" y="193" type="curve" smooth="yes"/>
      <point x="77" y="121"/>
      <point x="274" y="-20"/>
      <point x="401" y="-20" type="curve" smooth="yes"/>
      <point x="433" y="-20"/>
      <point x="484" y="-14"/>
      <point x="518" y="-3" type="curve"/>
    </contour>
    <contour>
      <point x="164" y="228" type="curve" smooth="yes"/>
      <point x="164" y="316"/>
      <point x="302" y="440"/>
      <point x="335" y="440" type="curve" smooth="yes"/>
      <point x="355" y="440"/>
      <point x="368" y="431"/>
      <point x="368" y="371" type="curve" smooth="yes"/>
      <point x="368" y="324"/>
      <point x="354" y="188"/>
      <point x="330" y="103" type="curve" smooth="yes"/>
      <point x="327" y="92"/>
      <point x="323" y="82"/>
      <point x="315" y="82" type="curve" smooth="yes"/>
      <point x="307" y="82"/>
      <point x="296" y="86"/>
      <point x="282" y="94" type="curve" smooth="yes"/>
      <point x="216" y="133"/>
      <point x="164" y="188"/>
    </contour>
  </outline>
</glyph>
<glyph name="uni134E" format="2">
  <advance width="907"/>
  <unicode hex="134E"/>
  <outline>
    <contour>
      <point x="745" y="-41" type="curve"/>
      <point x="736" y="-17"/>
      <point x="732" y="26"/>
      <point x="735" y="53" type="curve"/>
      <point x="702" y="65"/>
      <point x="657" y="76"/>
      <point x="647" y="76" type="curve"/>
      <point x="623" y="71"/>
      <point x="518" y="45"/>
      <point x="433" y="45" type="curve" smooth="yes"/>
      <point x="425" y="45"/>
      <point x="414" y="46"/>
      <point x="406" y="47" type="curve"/>
      <point x="423" y="133"/>
      <point x="446" y="322"/>
      <point x="446" y="426" type="curve" smooth="yes"/>
      <point x="446" y="439"/>
      <point x="446" y="448"/>
      <point x="440" y="469" type="curve"/>
      <point x="458" y="482"/>
      <point x="473" y="488"/>
      <point x="485" y="488" type="curve" smooth="yes"/>
      <point x="522" y="488"/>
      <point x="599" y="331"/>
      <point x="724" y="331" type="curve" smooth="yes"/>
      <point x="780" y="331"/>
      <point x="828" y="385"/>
      <point x="828" y="472" type="curve" smooth="yes"/>
      <point x="828" y="540"/>
      <point x="798" y="613"/>
      <point x="671" y="607" type="curve" smooth="yes"/>
      <point x="606" y="604"/>
      <point x="565" y="596"/>
      <point x="507" y="573" type="curve" smooth="yes"/>
      <point x="315" y="494"/>
      <point x="164" y="389"/>
      <point x="109" y="317" type="curve" smooth="yes"/>
      <point x="83" y="283"/>
      <point x="77" y="226"/>
      <point x="77" y="193" type="curve" smooth="yes"/>
      <point x="77" y="121"/>
      <point x="274" y="-20"/>
      <point x="401" y="-20" type="curve" smooth="yes"/>
      <point x="491" y="-20"/>
      <point x="583" y="2"/>
      <point x="631" y="9" type="curve"/>
      <point x="638" y="-33"/>
      <point x="660" y="-47"/>
      <point x="702" y="-47" type="curve" smooth="yes"/>
      <point x="715" y="-47"/>
      <point x="733" y="-45"/>
    </contour>
    <contour>
      <point x="164" y="227" type="curve" smooth="yes"/>
      <point x="164" y="316"/>
      <point x="326" y="422"/>
      <point x="351" y="422" type="curve" smooth="yes"/>
      <point x="363" y="422"/>
      <point x="365" y="412"/>
      <point x="365" y="378" type="curve" smooth="yes"/>
      <point x="365" y="317"/>
      <point x="358" y="185"/>
      <point x="339" y="109" type="curve" smooth="yes"/>
      <point x="335" y="94"/>
      <point x="328" y="80"/>
      <point x="319" y="80" type="curve" smooth="yes"/>
      <point x="312" y="80"/>
      <point x="302" y="82"/>
      <point x="291" y="88" type="curve" smooth="yes"/>
      <point x="216" y="130"/>
      <point x="164" y="182"/>
    </contour>
    <contour>
      <point x="685" y="551" type="curve" smooth="yes"/>
      <point x="740" y="551"/>
      <point x="757" y="514"/>
      <point x="757" y="476" type="curve" smooth="yes"/>
      <point x="757" y="430"/>
      <point x="731" y="400"/>
      <point x="703" y="400" type="curve" smooth="yes"/>
      <point x="660" y="400"/>
      <point x="589" y="451"/>
      <point x="588" y="492" type="curve" smooth="yes"/>
      <point x="587" y="527"/>
      <point x="616" y="551"/>
    </contour>
  </outline>
</glyph>
<glyph name="uni1353" format="2">
  <advance width="746"/>
  <unicode hex="1353"/>
  <outline>
    <contour>
      <point x="604" y="514" type="curve"/>
      <point x="568" y="542" type="line"/>
      <point x="567" y="483"/>
      <point x="585" y="449"/>
      <point x="638" y="449" type="curve" smooth="yes"/>
      <point x="653" y="449"/>
      <point x="678" y="454"/>
      <point x="690" y="462" type="curve"/>
      <point x="676" y="495"/>
      <point x="673" y="531"/>
      <point x="678" y="555" type="curve"/>
      <point x="658" y="560"/>
      <point x="615" y="567"/>
      <point x="597" y="567" type="curve"/>
      <point x="494" y="563"/>
      <point x="251" y="551"/>
      <point x="168" y="545" type="curve"/>
      <point x="128" y="529"/>
      <point x="104" y="480"/>
      <point x="104" y="447" type="curve" smooth="yes"/>
      <point x="104" y="421"/>
      <point x="121" y="406"/>
      <point x="154" y="406" type="curve" smooth="yes"/>
      <point x="177" y="406"/>
      <point x="195" y="410"/>
      <point x="223" y="422" type="curve"/>
      <point x="214" y="454"/>
      <point x="213" y="500"/>
      <point x="240" y="534" type="curve"/>
      <point x="197" y="495" type="line"/>
      <point x="278" y="503"/>
      <point x="459" y="514"/>
    </contour>
    <contour>
      <point x="287" y="122" type="curve" smooth="yes"/>
      <point x="265" y="47"/>
      <point x="223" y="30"/>
      <point x="125" y="30" type="curve" smooth="yes"/>
      <point x="61" y="30"/>
      <point x="37" y="-12"/>
      <point x="37" y="-45" type="curve" smooth="yes"/>
      <point x="37" y="-77"/>
      <point x="56" y="-100"/>
      <point x="103" y="-100" type="curve" smooth="yes"/>
      <point x="122" y="-100"/>
      <point x="136" y="-97"/>
      <point x="146" y="-93" type="curve"/>
      <point x="147" y="-61"/>
      <point x="154" y="-19"/>
      <point x="180" y="13" type="curve"/>
      <point x="142" y="-10" type="line"/>
      <point x="302" y="-5"/>
      <point x="351" y="37"/>
      <point x="371" y="108" type="curve" smooth="yes"/>
      <point x="390" y="176"/>
      <point x="433" y="430"/>
      <point x="462" y="553" type="curve"/>
      <point x="368" y="546" type="line"/>
      <point x="357" y="402"/>
      <point x="306" y="185"/>
    </contour>
  </outline>
</glyph>
<glyph name="uni1360" format="2">
  <advance width="886"/>
  <unicode hex="1360"/>
  <outline>
    <contour>
      <point x="331" y="484" type="curve" smooth="yes"/>
      <point x="353" y="484"/>
      <point x="389" y="487"/>
      <point x="402" y="498" type="curve"/>
      <point x="402" y="516"/>
      <point x="416" y="549"/>
      <point x="416" y="567" type="curve" smooth="yes"/>
      <point x="416" y="580"/>
      <point x="407" y="588"/>
      <point x="385" y="588" type="curve" smooth="yes"/>
      <point x="369" y="588"/>
      <point x="334" y="581"/>
      <point x="314" y="572" type="curve"/>
      <point x="314" y="549"/>
      <point x="300" y="529"/>
      <point x="300" y="512" type="curve" smooth="yes"/>
      <point x="300" y="493"/>
      <point x="312" y="484"/>
    </contour>
    <contour>
      <point x="520" y="-36" type="curve" smooth="yes"/>
      <point x="542" y="-36"/>
      <point x="578" y="-33"/>
      <point x="591" y="-22" type="curve"/>
      <point x="591" y="-4"/>
      <point x="605" y="29"/>
      <point x="605" y="47" type="curve" smooth="yes"/>
      <point x="605" y="60"/>
      <point x="596" y="68"/>
      <point x="574" y="68" type="curve" smooth="yes"/>
      <point x="558" y="68"/>
      <point x="523" y="61"/>
      <point x="503" y="52" type="curve"/>
      <point x="503" y="29"/>
      <point x="489" y="9"/>
      <point x="489" y="-8" type="curve" smooth="yes"/>
      <point x="489" y="-27"/>
      <point x="501" y="-36"/>
    </contour>
    <contour>
      <point x="600" y="546" type="curve" smooth="yes"/>
      <point x="487" y="425"/>
      <point x="244" y="78"/>
      <point x="244" y="27" type="curve" smooth="yes"/>
      <point x="244" y="6"/>
      <point x="255" y="-9"/>
      <point x="291" y="-9" type="curve" smooth="yes"/>
      <point x="307" y="-9"/>
      <point x="327" y="-6"/>
      <point x="343" y="2" type="curve"/>
      <point x="333" y="99"/>
      <point x="656" y="507"/>
      <point x="695" y="523" type="curve"/>
      <point x="686" y="537"/>
      <point x="669" y="569"/>
      <point x="644" y="569" type="curve" smooth="yes"/>
      <point x="627" y="569"/>
      <point x="618" y="565"/>
    </contour>
    <contour>
      <point x="727" y="174" type="curve"/>
      <point x="692" y="200" type="line"/>
      <point x="675" y="141"/>
      <point x="707" y="99"/>
      <point x="760" y="99" type="curve" smooth="yes"/>
      <point x="775" y="99"/>
      <point x="800" y="104"/>
      <point x="812" y="112" type="curve"/>
      <point x="798" y="145"/>
      <point x="795" y="181"/>
      <point x="800" y="205" type="curve"/>
      <point x="687" y="253"/>
      <point x="251" y="391"/>
      <point x="167" y="396" type="curve"/>
      <point x="126" y="383"/>
      <point x="104" y="351"/>
      <point x="104" y="318" type="curve" smooth="yes"/>
      <point x="104" y="292"/>
      <point x="121" y="277"/>
      <point x="154" y="277" type="curve" smooth="yes"/>
      <point x="177" y="277"/>
      <point x="195" y="281"/>
      <point x="223" y="293" type="curve"/>
      <point x="216" y="315"/>
      <point x="220" y="333"/>
      <point x="228" y="347" type="curve"/>
      <point x="199" y="335" type="line"/>
      <point x="280" y="338"/>
      <point x="584" y="232"/>
    </contour>
    <contour>
      <point x="711" y="324" type="curve" smooth="yes"/>
      <point x="733" y="324"/>
      <point x="769" y="327"/>
      <point x="782" y="338" type="curve"/>
      <point x="782" y="356"/>
      <point x="796" y="389"/>
      <point x="796" y="407" type="curve" smooth="yes"/>
      <point x="796" y="420"/>
      <point x="787" y="428"/>
      <point x="765" y="428" type="curve" smooth="yes"/>
      <point x="749" y="428"/>
      <point x="714" y="421"/>
      <point x="694" y="412" type="curve"/>
      <point x="694" y="389"/>
      <point x="680" y="369"/>
      <point x="680" y="352" type="curve" smooth="yes"/>
      <point x="680" y="333"/>
      <point x="692" y="324"/>
    </contour>
    <contour>
      <point x="100" y="94" type="curve" smooth="yes"/>
      <point x="122" y="94"/>
      <point x="158" y="97"/>
      <point x="171" y="108" type="curve"/>
      <point x="171" y="126"/>
      <point x="185" y="159"/>
      <point x="185" y="177" type="curve" smooth="yes"/>
      <point x="185" y="190"/>
      <point x="176" y="198"/>
      <point x="154" y="198" type="curve" smooth="yes"/>
      <point x="138" y="198"/>
      <point x="103" y="191"/>
      <point x="83" y="182" type="curve"/>
      <point x="83" y="159"/>
      <point x="69" y="139"/>
      <point x="69" y="122" type="curve" smooth="yes"/>
      <point x="69" y="103"/>
      <point x="81" y="94"/>
    </contour>
  </outline>
</glyph>
<glyph name="uni1362" format="2">
  <advance width="539"/>
  <unicode hex="1362"/>
  <outline>
    <contour>
      <point x="155" y="429" type="curve" smooth="yes"/>
      <point x="177" y="429"/>
      <point x="213" y="432"/>
      <point x="226" y="443" type="curve"/>
      <point x="226" y="461"/>
      <point x="240" y="494"/>
      <point x="240" y="512" type="curve" smooth="yes"/>
      <point x="240" y="525"/>
      <point x="231" y="533"/>
      <point x="209" y="533" type="curve" smooth="yes"/>
      <point x="193" y="533"/>
      <point x="158" y="526"/>
      <point x="138" y="517" type="curve"/>
      <point x="138" y="494"/>
      <point x="124" y="474"/>
      <point x="124" y="457" type="curve" smooth="yes"/>
      <point x="124" y="438"/>
      <point x="136" y="429"/>
    </contour>
    <contour>
      <point x="108" y="196" type="curve" smooth="yes"/>
      <point x="130" y="196"/>
      <point x="166" y="199"/>
      <point x="179" y="210" type="curve"/>
      <point x="179" y="228"/>
      <point x="193" y="261"/>
      <point x="193" y="279" type="curve" smooth="yes"/>
      <point x="193" y="292"/>
      <point x="184" y="300"/>
      <point x="162" y="300" type="curve" smooth="yes"/>
      <point x="146" y="300"/>
      <point x="111" y="293"/>
      <point x="91" y="284" type="curve"/>
      <point x="91" y="261"/>
      <point x="77" y="241"/>
      <point x="77" y="224" type="curve" smooth="yes"/>
      <point x="77" y="205"/>
      <point x="89" y="196"/>
    </contour>
    <contour>
      <point x="376" y="326" type="curve" smooth="yes"/>
      <point x="398" y="326"/>
      <point x="434" y="329"/>
      <point x="447" y="340" type="curve"/>
      <point x="447" y="358"/>
      <point x="461" y="391"/>
      <point x="461" y="409" type="curve" smooth="yes"/>
      <point x="461" y="422"/>
      <point x="452" y="430"/>
      <point x="430" y="430" type="curve" smooth="yes"/>
      <point x="414" y="430"/>
      <point x="379" y="423"/>
      <point x="359" y="414" type="curve"/>
      <point x="359" y="391"/>
      <point x="345" y="371"/>
      <point x="345" y="354" type="curve" smooth="yes"/>
      <point x="345" y="335"/>
      <point x="357" y="326"/>
    </contour>
  </outline>
</glyph>
<glyph name="uni1364" format="2">
  <advance width="434"/>
  <unicode hex="1364"/>
  <outline>
    <contour>
      <point x="207" y="414" type="curve" smooth="yes"/>
      <point x="229" y="414"/>
      <point x="265" y="417"/>
      <point x="278" y="428" type="curve"/>
      <point x="278" y="446"/>
      <point x="292" y="479"/>
      <point x="292" y="497" type="curve" smooth="yes"/>
      <point x="292" y="510"/>
      <point x="283" y="518"/>
      <point x="261" y="518" type="curve" smooth="yes"/>
      <point x="245" y="518"/>
      <point x="210" y="511"/>
      <point x="190" y="502" type="curve"/>
      <point x="190" y="479"/>
      <point x="176" y="459"/>
      <point x="176" y="442" type="curve" smooth="yes"/>
      <point x="176" y="423"/>
      <point x="188" y="414"/>
    </contour>
    <contour>
      <point x="160" y="181" type="curve" smooth="yes"/>
      <point x="182" y="181"/>
      <point x="218" y="184"/>
      <point x="231" y="195" type="curve"/>
      <point x="231" y="213"/>
      <point x="245" y="246"/>
      <point x="245" y="264" type="curve" smooth="yes"/>
      <point x="245" y="277"/>
      <point x="236" y="285"/>
      <point x="214" y="285" type="curve" smooth="yes"/>
      <point x="198" y="285"/>
      <point x="163" y="278"/>
      <point x="143" y="269" type="curve"/>
      <point x="143" y="246"/>
      <point x="129" y="226"/>
      <point x="129" y="209" type="curve" smooth="yes"/>
      <point x="129" y="190"/>
      <point x="141" y="181"/>
    </contour>
    <contour>
      <point x="352" y="646" type="curve"/>
      <point x="296" y="637"/>
      <point x="243" y="631"/>
      <point x="152" y="622" type="curve"/>
      <point x="139" y="603"/>
      <point x="137" y="583"/>
      <point x="146" y="564" type="curve"/>
      <point x="208" y="573"/>
      <point x="288" y="585"/>
      <point x="363" y="586" type="curve"/>
      <point x="374" y="608"/>
      <point x="371" y="628"/>
    </contour>
    <contour>
      <point x="270" y="114" type="curve"/>
      <point x="214" y="105"/>
      <point x="161" y="99"/>
      <point x="70" y="90" type="curve"/>
      <point x="57" y="71"/>
      <point x="55" y="51"/>
      <point x="64" y="32" type="curve"/>
      <point x="126" y="41"/>
      <point x="206" y="53"/>
      <point x="281" y="54" type="curve"/>
      <point x="292" y="76"/>
      <point x="289" y="96"/>
    </contour>
  </outline>
</glyph>
<glyph name="uni1365" format="2">
  <advance width="391"/>
  <unicode hex="1365"/>
  <outline>
    <contour>
      <point x="189" y="414" type="curve" smooth="yes"/>
      <point x="211" y="414"/>
      <point x="247" y="417"/>
      <point x="260" y="428" type="curve"/>
      <point x="260" y="446"/>
      <point x="274" y="479"/>
      <point x="274" y="497" type="curve" smooth="yes"/>
      <point x="274" y="510"/>
      <point x="265" y="518"/>
      <point x="243" y="518" type="curve" smooth="yes"/>
      <point x="227" y="518"/>
      <point x="192" y="511"/>
      <point x="172" y="502" type="curve"/>
      <point x="172" y="479"/>
      <point x="158" y="459"/>
      <point x="158" y="442" type="curve" smooth="yes"/>
      <point x="158" y="423"/>
      <point x="170" y="414"/>
    </contour>
    <contour>
      <point x="128" y="154" type="curve" smooth="yes"/>
      <point x="150" y="154"/>
      <point x="186" y="157"/>
      <point x="199" y="168" type="curve"/>
      <point x="199" y="186"/>
      <point x="213" y="219"/>
      <point x="213" y="237" type="curve" smooth="yes"/>
      <point x="213" y="250"/>
      <point x="204" y="258"/>
      <point x="182" y="258" type="curve" smooth="yes"/>
      <point x="166" y="258"/>
      <point x="131" y="251"/>
      <point x="111" y="242" type="curve"/>
      <point x="111" y="219"/>
      <point x="97" y="199"/>
      <point x="97" y="182" type="curve" smooth="yes"/>
      <point x="97" y="163"/>
      <point x="109" y="154"/>
    </contour>
    <contour>
      <point x="310" y="380" type="curve"/>
      <point x="243" y="370"/>
      <point x="179" y="361"/>
      <point x="70" y="350" type="curve"/>
      <point x="57" y="331"/>
      <point x="55" y="311"/>
      <point x="64" y="292" type="curve"/>
      <point x="138" y="302"/>
      <point x="232" y="317"/>
      <point x="321" y="320" type="curve"/>
      <point x="332" y="342"/>
      <point x="329" y="362"/>
    </contour>
  </outline>
</glyph>
<glyph name="uni1366" format="2">
  <advance width="522"/>
  <unicode hex="1366"/>
  <outline>
    <contour>
      <point x="155" y="414" type="curve" smooth="yes"/>
      <point x="177" y="414"/>
      <point x="213" y="417"/>
      <point x="226" y="428" type="curve"/>
      <point x="226" y="446"/>
      <point x="240" y="479"/>
      <point x="240" y="497" type="curve" smooth="yes"/>
      <point x="240" y="510"/>
      <point x="231" y="518"/>
      <point x="209" y="518" type="curve" smooth="yes"/>
      <point x="193" y="518"/>
      <point x="158" y="511"/>
      <point x="138" y="502" type="curve"/>
      <point x="138" y="479"/>
      <point x="124" y="459"/>
      <point x="124" y="442" type="curve" smooth="yes"/>
      <point x="124" y="423"/>
      <point x="136" y="414"/>
    </contour>
    <contour>
      <point x="94" y="154" type="curve" smooth="yes"/>
      <point x="116" y="154"/>
      <point x="152" y="157"/>
      <point x="165" y="168" type="curve"/>
      <point x="165" y="186"/>
      <point x="179" y="219"/>
      <point x="179" y="237" type="curve" smooth="yes"/>
      <point x="179" y="250"/>
      <point x="170" y="258"/>
      <point x="148" y="258" type="curve" smooth="yes"/>
      <point x="132" y="258"/>
      <point x="97" y="251"/>
      <point x="77" y="242" type="curve"/>
      <point x="77" y="219"/>
      <point x="63" y="199"/>
      <point x="63" y="182" type="curve" smooth="yes"/>
      <point x="63" y="163"/>
      <point x="75" y="154"/>
    </contour>
    <contour>
      <point x="441" y="394" type="curve"/>
      <point x="374" y="384"/>
      <point x="310" y="375"/>
      <point x="201" y="364" type="curve"/>
      <point x="188" y="345"/>
      <point x="186" y="325"/>
      <point x="195" y="306" type="curve"/>
      <point x="269" y="316"/>
      <point x="363" y="331"/>
      <point x="452" y="334" type="curve"/>
      <point x="463" y="356"/>
      <point x="460" y="376"/>
    </contour>
  </outline>
</glyph>
<glyph name="uni136C" format="2">
  <advance width="563"/>
  <unicode hex="136C"/>
  <outline>
    <contour>
      <point x="246" y="55" type="curve" smooth="yes"/>
      <point x="283" y="55"/>
      <point x="301" y="79"/>
      <point x="301" y="119" type="curve"/>
      <point x="252" y="63" type="line"/>
      <point x="368.0" y="155.5"/>
      <point x="487.0" y="349.1333333333333"/>
      <point x="487" y="433" type="curve" smooth="yes"/>
      <point x="487.0" y="495.10526315789474"/>
      <point x="461.0" y="533.0"/>
      <point x="340" y="533" type="curve" smooth="yes"/>
      <point x="252" y="533"/>
      <point x="147" y="513"/>
      <point x="84" y="481" type="curve" smooth="yes"/>
      <point x="58" y="471"/>
      <point x="61" y="431"/>
      <point x="86" y="423" type="curve"/>
      <point x="95" y="426" type="line"/>
      <point x="90.0" y="399.1707317073171"/>
      <point x="86.0" y="356.2439024390244"/>
      <point x="86" y="316" type="curve" smooth="yes"/>
      <point x="86.0" y="144.6478260869565"/>
      <point x="162.0" y="55.0"/>
    </contour>
    <contour>
      <point x="165" y="325" type="curve" smooth="yes"/>
      <point x="165.0" y="366.0505050505051"/>
      <point x="174.0" y="426.34343434343435"/>
      <point x="183" y="452" type="curve"/>
      <point x="222" y="468"/>
      <point x="284" y="480"/>
      <point x="323" y="480" type="curve" smooth="yes"/>
      <point x="378.0" y="480.0"/>
      <point x="398.0" y="458.1818181818182"/>
      <point x="398" y="420" type="curve" smooth="yes"/>
      <point x="398.0" y="362.109022556391"/>
      <point x="320" y="235"/>
      <point x="250" y="159" type="curve" smooth="yes"/>
      <point x="241" y="149"/>
      <point x="229" y="147"/>
      <point x="218" y="147" type="curve" smooth="yes"/>
      <point x="207" y="147"/>
      <point x="198" y="152"/>
      <point x="191" y="164" type="curve" smooth="yes"/>
      <point x="172" y="197"/>
      <point x="165.0" y="251.93076923076922"/>
    </contour>
    <contour>
      <point x="540" y="605" type="curve"/>
      <point x="545" y="614"/>
      <point x="547" y="626"/>
      <point x="547" y="634" type="curve" smooth="yes"/>
      <point x="547" y="656"/>
      <point x="535" y="675"/>
      <point x="499" y="675" type="curve" smooth="yes"/>
      <point x="438" y="675"/>
      <point x="234" y="642"/>
      <point x="101" y="645" type="curve"/>
      <point x="96" y="636"/>
      <point x="94" y="628"/>
      <point x="94" y="620" type="curve" smooth="yes"/>
      <point x="94" y="598"/>
      <point x="106" y="585"/>
      <point x="132" y="585" type="curve" smooth="yes"/>
      <point x="146" y="585"/>
      <point x="461" y="605"/>
    </contour>
    <contour>
      <point x="31" y="-4" type="curve"/>
      <point x="26" y="-13"/>
      <point x="24" y="-25"/>
      <point x="24" y="-33" type="curve" smooth="yes"/>
      <point x="24" y="-55"/>
      <point x="36" y="-74"/>
      <point x="72" y="-74" type="curve" smooth="yes"/>
      <point x="133" y="-74"/>
      <point x="327" y="-41"/>
      <point x="460" y="-44" type="curve"/>
      <point x="465" y="-35"/>
      <point x="467" y="-27"/>
      <point x="467" y="-19" type="curve" smooth="yes"/>
      <point x="467" y="3"/>
      <point x="455" y="16"/>
      <point x="429" y="16" type="curve" smooth="yes"/>
      <point x="415" y="16"/>
      <point x="110" y="-4"/>
    </contour>
  </outline>
</glyph>
<glyph name="uni1370" format="2">
  <advance width="599"/>
  <unicode hex="1370"/>
  <outline>
    <contour>
      <point x="294" y="511" type="line"/>
      <point x="284.6625" y="420.6428571428571"/>
      <point x="211.0" y="199.88392857142856"/>
      <point x="211" y="166" type="curve"/>
      <point x="306" y="176" type="line"/>
      <point x="306.0" y="237.6216216216216"/>
      <point x="361.14864864864865" y="439.94594594594594"/>
      <point x="383" y="518" type="curve"/>
    </contour>
    <contour>
      <point x="483" y="479" type="curve"/>
      <point x="447" y="507" type="line"/>
      <point x="446" y="448"/>
      <point x="464" y="414"/>
      <point x="517" y="414" type="curve" smooth="yes"/>
      <point x="532" y="414"/>
      <point x="557" y="419"/>
      <point x="569" y="427" type="curve"/>
      <point x="555" y="460"/>
      <point x="552" y="496"/>
      <point x="557" y="520" type="curve"/>
      <point x="537" y="525"/>
      <point x="494" y="532"/>
      <point x="476" y="532" type="curve"/>
      <point x="390" y="528"/>
      <point x="190" y="516"/>
      <point x="122" y="510" type="curve"/>
      <point x="82" y="494"/>
      <point x="58" y="445"/>
      <point x="58" y="412" type="curve" smooth="yes"/>
      <point x="58" y="386"/>
      <point x="75" y="371"/>
      <point x="108" y="371" type="curve" smooth="yes"/>
      <point x="131" y="371"/>
      <point x="149" y="375"/>
      <point x="177" y="387" type="curve"/>
      <point x="168" y="419"/>
      <point x="167" y="465"/>
      <point x="194" y="499" type="curve"/>
      <point x="151" y="460" type="line"/>
      <point x="217" y="468"/>
      <point x="366" y="479"/>
    </contour>
    <contour>
      <point x="167" y="143" type="curve"/>
      <point x="200" y="147"/>
      <point x="329" y="162"/>
      <point x="383" y="167" type="curve"/>
      <point x="370" y="190" type="line"/>
      <point x="369" y="114"/>
      <point x="396" y="90"/>
      <point x="451" y="90" type="curve" smooth="yes"/>
      <point x="464" y="90"/>
      <point x="482" y="92"/>
      <point x="494" y="96" type="curve"/>
      <point x="485" y="120"/>
      <point x="481" y="163"/>
      <point x="484" y="190" type="curve"/>
      <point x="451" y="202"/>
      <point x="406" y="216"/>
      <point x="396" y="216" type="curve" smooth="yes"/>
      <point x="376" y="216"/>
      <point x="203" y="193"/>
      <point x="150" y="187" type="curve"/>
      <point x="81" y="200"/>
      <point x="43" y="170"/>
      <point x="43" y="108" type="curve" smooth="yes"/>
      <point x="43" y="70"/>
      <point x="65" y="55"/>
      <point x="97" y="55" type="curve" smooth="yes"/>
      <point x="124" y="55"/>
      <point x="146" y="62"/>
      <point x="160" y="69" type="curve"/>
      <point x="155" y="91"/>
      <point x="157" y="125"/>
    </contour>
    <contour>
      <point x="562" y="605" type="curve"/>
      <point x="567" y="614"/>
      <point x="569" y="626"/>
      <point x="569" y="634" type="curve" smooth="yes"/>
      <point x="569" y="656"/>
      <point x="557" y="675"/>
      <point x="521" y="675" type="curve" smooth="yes"/>
      <point x="460" y="675"/>
      <point x="256" y="642"/>
      <point x="123" y="645" type="curve"/>
      <point x="118" y="636"/>
      <point x="116" y="628"/>
      <point x="116" y="620" type="curve" smooth="yes"/>
      <point x="116" y="598"/>
      <point x="128" y="585"/>
      <point x="154" y="585" type="curve" smooth="yes"/>
      <point x="168" y="585"/>
      <point x="483" y="605"/>
    </contour>
    <contour>
      <point x="53" y="-4" type="curve"/>
      <point x="48" y="-13"/>
      <point x="46" y="-25"/>
      <point x="46" y="-33" type="curve" smooth="yes"/>
      <point x="46" y="-55"/>
      <point x="58" y="-74"/>
      <point x="94" y="-74" type="curve" smooth="yes"/>
      <point x="155" y="-74"/>
      <point x="349" y="-41"/>
      <point x="482" y="-44" type="curve"/>
      <point x="487" y="-35"/>
      <point x="489" y="-27"/>
      <point x="489" y="-19" type="curve" smooth="yes"/>
      <point x="489" y="3"/>
      <point x="477" y="16"/>
      <point x="451" y="16" type="curve" smooth="yes"/>
      <point x="437" y="16"/>
      <point x="132" y="-4"/>
    </contour>
  </outline>
</glyph>
<glyph name="uni1371" format="2">
  <advance width="593"/>
  <unicode hex="1371"/>
  <outline>
    <contour>
      <point x="389" y="101" type="curve" smooth="yes"/>
      <point x="406" y="101"/>
      <point x="424" y="107"/>
      <point x="441" y="158" type="curve" smooth="yes"/>
      <point x="494" y="306"/>
      <point x="546.0" y="431.6794425087108"/>
      <point x="546" y="476" type="curve" smooth="yes"/>
      <point x="546" y="513"/>
      <point x="527" y="535"/>
      <point x="486" y="535" type="curve" smooth="yes"/>
      <point x="454" y="535"/>
      <point x="429" y="520"/>
      <point x="424" y="484" type="curve"/>
      <point x="436" y="478"/>
      <point x="452" y="468"/>
      <point x="452" y="441" type="curve" smooth="yes"/>
      <point x="452.0" y="394.5683760683761"/>
      <point x="392" y="220"/>
      <point x="354" y="176" type="curve" smooth="yes"/>
      <point x="320" y="140"/>
      <point x="281" y="123"/>
      <point x="235" y="123" type="curve" smooth="yes"/>
      <point x="190" y="123"/>
      <point x="164" y="151"/>
      <point x="164" y="220" type="curve" smooth="yes"/>
      <point x="164.0" y="262"/>
      <point x="180.41379310344828" y="354.06417112299465"/>
      <point x="198" y="438" type="curve"/>
      <point x="214" y="444"/>
      <point x="223" y="454"/>
      <point x="223" y="471" type="curve" smooth="yes"/>
      <point x="223" y="506"/>
      <point x="169" y="533"/>
      <point x="122" y="533" type="curve" smooth="yes"/>
      <point x="86" y="533"/>
      <point x="76" y="508"/>
      <point x="81" y="489" type="curve"/>
      <point x="105" y="481"/>
      <point x="117" y="471"/>
      <point x="117" y="446" type="curve" smooth="yes"/>
      <point x="117.0" y="404.80930232558137"/>
      <point x="83.0" y="261"/>
      <point x="83" y="200" type="curve" smooth="yes"/>
      <point x="83" y="97"/>
      <point x="131" y="56"/>
      <point x="210" y="56" type="curve" smooth="yes"/>
      <point x="288" y="56"/>
      <point x="341" y="84"/>
      <point x="382" y="120" type="curve"/>
      <point x="329" y="127" type="line"/>
      <point x="360" y="105"/>
      <point x="371" y="101"/>
    </contour>
    <contour>
      <point x="477" y="365" type="line"/>
      <point x="468" y="366"/>
      <point x="458" y="364"/>
      <point x="422" y="358" type="curve" smooth="yes"/>
      <point x="341" y="345"/>
      <point x="271" y="331"/>
      <point x="137" y="319" type="curve"/>
      <point x="131" y="261" type="line"/>
      <point x="234" y="276"/>
      <point x="368" y="303"/>
      <point x="474" y="309" type="curve"/>
    </contour>
    <contour>
      <point x="548" y="605" type="curve"/>
      <point x="553" y="614"/>
      <point x="555" y="626"/>
      <point x="555" y="634" type="curve" smooth="yes"/>
      <point x="555" y="656"/>
      <point x="543" y="675"/>
      <point x="507" y="675" type="curve" smooth="yes"/>
      <point x="446" y="675"/>
      <point x="242" y="642"/>
      <point x="109" y="645" type="curve"/>
      <point x="104" y="636"/>
      <point x="102" y="628"/>
      <point x="102" y="620" type="curve" smooth="yes"/>
      <point x="102" y="598"/>
      <point x="114" y="585"/>
      <point x="140" y="585" type="curve" smooth="yes"/>
      <point x="154" y="585"/>
      <point x="469" y="605"/>
    </contour>
    <contour>
      <point x="39" y="-4" type="curve"/>
      <point x="34" y="-13"/>
      <point x="32" y="-25"/>
      <point x="32" y="-33" type="curve" smooth="yes"/>
      <point x="32" y="-55"/>
      <point x="44" y="-74"/>
      <point x="80" y="-74" type="curve" smooth="yes"/>
      <point x="141" y="-74"/>
      <point x="335" y="-41"/>
      <point x="468" y="-44" type="curve"/>
      <point x="473" y="-35"/>
      <point x="475" y="-27"/>
      <point x="475" y="-19" type="curve" smooth="yes"/>
      <point x="475" y="3"/>
      <point x="463" y="16"/>
      <point x="437" y="16" type="curve" smooth="yes"/>
      <point x="423" y="16"/>
      <point x="118" y="-4"/>
    </contour>
  </outline>
</glyph>
<glyph name="uni1373" format="2">
  <advance width="633"/>
  <unicode hex="1373"/>
  <outline>
    <contour>
      <point x="295" y="512" type="line"/>
      <point x="283" y="305"/>
      <point x="91.0" y="300.46305418719214"/>
      <point x="91" y="91" type="curve" smooth="yes"/>
      <point x="91" y="70"/>
      <point x="100" y="55"/>
      <point x="128" y="55" type="curve" smooth="yes"/>
      <point x="144" y="55"/>
      <point x="169" y="58"/>
      <point x="185" y="66" type="curve"/>
      <point x="183" y="76"/>
      <point x="181" y="86"/>
      <point x="181" y="101" type="curve" smooth="yes"/>
      <point x="181.0" y="267.9925558312655"/>
      <point x="354" y="293"/>
      <point x="379" y="519" type="curve"/>
    </contour>
    <contour>
      <point x="531" y="480" type="curve"/>
      <point x="495" y="508" type="line"/>
      <point x="494" y="449"/>
      <point x="512" y="415"/>
      <point x="565" y="415" type="curve" smooth="yes"/>
      <point x="580" y="415"/>
      <point x="605" y="420"/>
      <point x="617" y="428" type="curve"/>
      <point x="603" y="461"/>
      <point x="600" y="497"/>
      <point x="605" y="521" type="curve"/>
      <point x="585" y="526"/>
      <point x="542" y="533"/>
      <point x="524" y="533" type="curve"/>
      <point x="421" y="529"/>
      <point x="178" y="517"/>
      <point x="95" y="511" type="curve"/>
      <point x="55" y="495"/>
      <point x="31" y="446"/>
      <point x="31" y="413" type="curve" smooth="yes"/>
      <point x="31" y="387"/>
      <point x="48" y="372"/>
      <point x="81" y="372" type="curve" smooth="yes"/>
      <point x="104" y="372"/>
      <point x="122" y="376"/>
      <point x="150" y="388" type="curve"/>
      <point x="141" y="420"/>
      <point x="140" y="466"/>
      <point x="167" y="500" type="curve"/>
      <point x="124" y="461" type="line"/>
      <point x="205" y="469"/>
      <point x="386" y="480"/>
    </contour>
    <contour>
      <point x="406" y="362" type="curve" smooth="yes"/>
      <point x="336" y="362"/>
      <point x="263" y="331"/>
      <point x="211" y="294" type="curve"/>
      <point x="225" y="265" type="line"/>
      <point x="292" y="301"/>
      <point x="343" y="313"/>
      <point x="377" y="313" type="curve" smooth="yes"/>
      <point x="411" y="313"/>
      <point x="430" y="294"/>
      <point x="430" y="257" type="curve" smooth="yes"/>
      <point x="430.0" y="203.33333333333334"/>
      <point x="395.0" y="137"/>
      <point x="395" y="96" type="curve" smooth="yes"/>
      <point x="395" y="73"/>
      <point x="407" y="59"/>
      <point x="438" y="59" type="curve" smooth="yes"/>
      <point x="452" y="59"/>
      <point x="484" y="66"/>
      <point x="497" y="79" type="curve"/>
      <point x="467" y="131"/>
      <point x="516.0" y="228.4573170731707"/>
      <point x="516" y="272" type="curve" smooth="yes"/>
      <point x="516" y="349"/>
      <point x="465" y="362"/>
    </contour>
    <contour>
      <point x="572" y="605" type="curve"/>
      <point x="577" y="614"/>
      <point x="579" y="626"/>
      <point x="579" y="634" type="curve" smooth="yes"/>
      <point x="579" y="656"/>
      <point x="567" y="675"/>
      <point x="531" y="675" type="curve" smooth="yes"/>
      <point x="470" y="675"/>
      <point x="266" y="642"/>
      <point x="133" y="645" type="curve"/>
      <point x="128" y="636"/>
      <point x="126" y="628"/>
      <point x="126" y="620" type="curve" smooth="yes"/>
      <point x="126" y="598"/>
      <point x="138" y="585"/>
      <point x="164" y="585" type="curve" smooth="yes"/>
      <point x="178" y="585"/>
      <point x="493" y="605"/>
    </contour>
    <contour>
      <point x="63" y="-4" type="curve"/>
      <point x="58" y="-13"/>
      <point x="56" y="-25"/>
      <point x="56" y="-33" type="curve" smooth="yes"/>
      <point x="56" y="-55"/>
      <point x="68" y="-74"/>
      <point x="104" y="-74" type="curve" smooth="yes"/>
      <point x="165" y="-74"/>
      <point x="359" y="-41"/>
      <point x="492" y="-44" type="curve"/>
      <point x="497" y="-35"/>
      <point x="499" y="-27"/>
      <point x="499" y="-19" type="curve" smooth="yes"/>
      <point x="499" y="3"/>
      <point x="487" y="16"/>
      <point x="461" y="16" type="curve" smooth="yes"/>
      <point x="447" y="16"/>
      <point x="142" y="-4"/>
    </contour>
  </outline>
</glyph>
<glyph name="uni137B" format="2">
  <advance width="553"/>
  <unicode hex="137B"/>
  <outline>
    <contour>
      <point x="205" y="54" type="curve" smooth="yes"/>
      <point x="236.0" y="54.0"/>
      <point x="264.0" y="88.20689655172414"/>
      <point x="244" y="209" type="curve"/>
      <point x="381.11475409836066" y="294.8220338983051"/>
      <point x="490.0" y="392"/>
      <point x="490" y="456" type="curve" smooth="yes"/>
      <point x="490" y="502"/>
      <point x="453" y="532"/>
      <point x="377" y="532" type="curve" smooth="yes"/>
      <point x="320.0" y="532.0"/>
      <point x="147.0" y="499.0"/>
      <point x="102" y="489" type="curve"/>
      <point x="51" y="496"/>
      <point x="28" y="470"/>
      <point x="36" y="437" type="curve"/>
      <point x="58" y="426"/>
      <point x="84" y="409"/>
      <point x="122" y="334" type="curve" smooth="yes"/>
      <point x="156" y="267"/>
      <point x="190.0" y="165.22175732217573"/>
      <point x="148" y="85" type="curve"/>
      <point x="161" y="66"/>
      <point x="175" y="54"/>
    </contour>
    <contour>
      <point x="171" y="431" type="curve" smooth="yes"/>
      <point x="171" y="444"/>
      <point x="185" y="454"/>
      <point x="209" y="460" type="curve" smooth="yes"/>
      <point x="242.0" y="469.0"/>
      <point x="312.0" y="478.0"/>
      <point x="350" y="478" type="curve" smooth="yes"/>
      <point x="381" y="478"/>
      <point x="399" y="463"/>
      <point x="399" y="444" type="curve" smooth="yes"/>
      <point x="399.0" y="419"/>
      <point x="327.1497005988024" y="341.8424657534247"/>
      <point x="230" y="287" type="curve"/>
      <point x="205.81967213114754" y="360.62406015037595"/>
      <point x="171.0" y="413"/>
    </contour>
    <contour>
      <point x="530" y="605" type="curve"/>
      <point x="535" y="614"/>
      <point x="537" y="626"/>
      <point x="537" y="634" type="curve" smooth="yes"/>
      <point x="537" y="656"/>
      <point x="525" y="675"/>
      <point x="489" y="675" type="curve" smooth="yes"/>
      <point x="428" y="675"/>
      <point x="224" y="642"/>
      <point x="91" y="645" type="curve"/>
      <point x="86" y="636"/>
      <point x="84" y="628"/>
      <point x="84" y="620" type="curve" smooth="yes"/>
      <point x="84" y="598"/>
      <point x="96" y="585"/>
      <point x="122" y="585" type="curve" smooth="yes"/>
      <point x="136" y="585"/>
      <point x="451" y="605"/>
    </contour>
    <contour>
      <point x="21" y="-4" type="curve"/>
      <point x="16" y="-13"/>
      <point x="14" y="-25"/>
      <point x="14" y="-33" type="curve" smooth="yes"/>
      <point x="14" y="-55"/>
      <point x="26" y="-74"/>
      <point x="62" y="-74" type="curve" smooth="yes"/>
      <point x="123" y="-74"/>
      <point x="317" y="-41"/>
      <point x="450" y="-44" type="curve"/>
      <point x="455" y="-35"/>
      <point x="457" y="-27"/>
      <point x="457" y="-19" type="curve" smooth="yes"/>
      <point x="457" y="3"/>
      <point x="445" y="16"/>
      <point x="419" y="16" type="curve" smooth="yes"/>
      <point x="405" y="16"/>
      <point x="100" y="-4"/>
    </contour>
  </outline>
</glyph>
<glyph name="uni1393" format="2">
  <advance width="269"/>
  <unicode hex="1393"/>
  <guideline x="112" y="302" angle="259.56915341954846" identifier="m6cAAx2BY8"/>
  <guideline x="63" y="28" angle="90" identifier="HZTkJ3DQrn"/>
  <outline>
    <contour>
      <point x="108" y="233" type="curve" smooth="yes"/>
      <point x="130" y="233"/>
      <point x="166" y="236"/>
      <point x="179" y="247" type="curve"/>
      <point x="179" y="265"/>
      <point x="193" y="298"/>
      <point x="193" y="316" type="curve" smooth="yes"/>
      <point x="193" y="329"/>
      <point x="184" y="337"/>
      <point x="162" y="337" type="curve" smooth="yes"/>
      <point x="146" y="337"/>
      <point x="111" y="330"/>
      <point x="91" y="321" type="curve"/>
      <point x="91" y="298"/>
      <point x="77" y="278"/>
      <point x="77" y="261" type="curve" smooth="yes"/>
      <point x="77" y="242"/>
      <point x="89" y="233"/>
    </contour>
    <contour>
      <point x="108" y="0" type="curve" smooth="yes"/>
      <point x="130" y="0"/>
      <point x="166" y="3"/>
      <point x="179" y="14" type="curve"/>
      <point x="179" y="32"/>
      <point x="193" y="65"/>
      <point x="193" y="83" type="curve" smooth="yes"/>
      <point x="193" y="96"/>
      <point x="184" y="104"/>
      <point x="162" y="104" type="curve" smooth="yes"/>
      <point x="146" y="104"/>
      <point x="111" y="97"/>
      <point x="91" y="88" type="curve"/>
      <point x="91" y="65"/>
      <point x="77" y="45"/>
      <point x="77" y="28" type="curve" smooth="yes"/>
      <point x="77" y="9"/>
      <point x="89" y="0"/>
    </contour>
  </outline>
</glyph>
<glyph name="uni1397" format="2">
  <advance width="806"/>
  <unicode hex="1397"/>
  <outline>
    <contour>
      <point x="736" y="70" type="curve"/>
      <point x="669" y="68"/>
      <point x="172" y="72"/>
      <point x="63" y="74" type="curve"/>
      <point x="50" y="45"/>
      <point x="48" y="29"/>
      <point x="57" y="10" type="curve"/>
      <point x="131" y="20"/>
      <point x="669" y="32"/>
      <point x="758" y="29" type="curve"/>
      <point x="742" y="51"/>
      <point x="737" y="67"/>
    </contour>
  </outline>
</glyph>
<glyph name="uni1398" format="2">
  <advance width="1019"/>
  <unicode hex="1398"/>
  <outline>
    <contour>
      <point x="950" y="106" type="curve"/>
      <point x="819" y="94"/>
      <point x="647" y="77"/>
      <point x="482" y="65" type="curve"/>
      <point x="474" y="65"/>
      <point x="467" y="65"/>
      <point x="461" y="65" type="curve" smooth="yes"/>
      <point x="440" y="65"/>
      <point x="429" y="68"/>
      <point x="429" y="80" type="curve" smooth="yes"/>
      <point x="429" y="85"/>
      <point x="430" y="90"/>
      <point x="433" y="97" type="curve" smooth="yes"/>
      <point x="464" y="175"/>
      <point x="490" y="222"/>
      <point x="490" y="245" type="curve" smooth="yes"/>
      <point x="490" y="276"/>
      <point x="468" y="295"/>
      <point x="433" y="295" type="curve" smooth="yes"/>
      <point x="401" y="295"/>
      <point x="383" y="274"/>
      <point x="380" y="246" type="curve"/>
      <point x="388" y="242"/>
      <point x="399" y="235"/>
      <point x="399" y="217" type="curve" smooth="yes"/>
      <point x="399" y="196"/>
      <point x="375" y="125"/>
      <point x="345" y="81" type="curve"/>
      <point x="310" y="70"/>
      <point x="274" y="64"/>
      <point x="234" y="64" type="curve" smooth="yes"/>
      <point x="193" y="64"/>
      <point x="169" y="83"/>
      <point x="169" y="130" type="curve" smooth="yes"/>
      <point x="169" y="145"/>
      <point x="178" y="179"/>
      <point x="186" y="209" type="curve"/>
      <point x="197" y="215"/>
      <point x="204" y="225"/>
      <point x="204" y="241" type="curve" smooth="yes"/>
      <point x="204" y="271"/>
      <point x="154" y="294"/>
      <point x="122" y="294" type="curve" smooth="yes"/>
      <point x="86" y="294"/>
      <point x="79" y="265"/>
      <point x="82" y="244" type="curve"/>
      <point x="99" y="238"/>
      <point x="107" y="231"/>
      <point x="107" y="214" type="curve" smooth="yes"/>
      <point x="107" y="198"/>
      <point x="90" y="141"/>
      <point x="90" y="116" type="curve" smooth="yes"/>
      <point x="90" y="37"/>
      <point x="131" y="-2.0"/>
      <point x="217" y="-2" type="curve" smooth="yes"/>
      <point x="423.0" y="-2"/>
      <point x="709.211180084693" y="39.285631468925146"/>
      <point x="961" y="46" type="curve"/>
      <point x="965" y="54"/>
      <point x="967" y="63"/>
      <point x="967" y="70" type="curve" smooth="yes"/>
      <point x="967" y="83"/>
      <point x="962" y="95"/>
    </contour>
  </outline>
</glyph>
<glyph name="chirho" format="2">
  <advance width="1167"/>
  <unicode hex="2627"/>
  <outline>
    <contour>
      <point x="554.715" y="-150.377" type="curve" smooth="yes"/>
      <point x="585.724" y="-161.664"/>
      <point x="609.051" y="-153.127"/>
      <point x="635.628" y="-129.811" type="curve"/>
      <point x="611.714" y="-101.952"/>
      <point x="636.578" y="611.653"/>
      <point x="641.564" y="713.063" type="curve"/>
      <point x="777.94" y="783.679"/>
      <point x="909.283" y="878.474"/>
      <point x="939.038" y="960.227" type="curve" smooth="yes"/>
      <point x="954.771" y="1003.45"/>
      <point x="934.022" y="1051.93"/>
      <point x="871.063" y="1074.85" type="curve" smooth="yes"/>
      <point x="814.681" y="1095.37"/>
      <point x="631.826" y="1128.37"/>
      <point x="585.724" y="1132.94" type="curve" smooth="yes"/>
      <point x="535.014" y="1137.97"/>
      <point x="509.689" y="1131.4"/>
      <point x="505.92" y="1097.65" type="curve"/>
      <point x="521.293" y="1081.41"/>
      <point x="531.558" y="1059.65"/>
      <point x="543.483" y="1002.04" type="curve" smooth="yes"/>
      <point x="575.154" y="849.033"/>
      <point x="537.005" y="34.8518"/>
      <point x="523.207" y="-87.8292" type="curve" smooth="yes"/>
      <point x="519.873" y="-117.475"/>
      <point x="529.343" y="-141.143"/>
    </contour>
    <contour>
      <point x="626" y="1037" type="curve" smooth="yes"/>
      <point x="626" y="1054"/>
      <point x="645.2626317880535" y="1062.5017962326642"/>
      <point x="668.353" y="1060.09" type="curve" smooth="yes"/>
      <point x="705.26" y="1056.24"/>
      <point x="779.755" y="1038.7"/>
      <point x="819.222" y="1024.34" type="curve" smooth="yes"/>
      <point x="840.835" y="1016.47"/>
      <point x="847.921" y="997.928"/>
      <point x="841.422" y="980.074" type="curve" smooth="yes"/>
      <point x="827.741" y="942.487"/>
      <point x="735.272" y="846.313"/>
      <point x="636.918" y="789.527" type="curve"/>
      <point x="632.0358419330198" y="912.8125913924695"/>
      <point x="626" y="1010"/>
    </contour>
    <contour>
      <point x="1125.71" y="631.967" type="curve"/>
      <point x="1126.23" y="641.345" type="line"/>
      <point x="1126.23" y="666.411"/>
      <point x="1114.41" y="720.196"/>
      <point x="1082.37" y="720.196" type="curve" smooth="yes"/>
      <point x="1057.91" y="720.196"/>
      <point x="979.935" y="664.829"/>
      <point x="957.601" y="651.684" type="curve" smooth="yes"/>
      <point x="775.832" y="544.704"/>
      <point x="593.194" y="439.34"/>
      <point x="411.847" y="331.574" type="curve" smooth="yes"/>
      <point x="326.612" y="280.923"/>
      <point x="163.902" y="175.893"/>
      <point x="73.7926" y="144.32" type="curve" smooth="yes"/>
      <point x="62.6201" y="140.406"/>
      <point x="51.2663" y="137.673"/>
      <point x="39.5353" y="136.108" type="curve"/>
      <point x="39.0218" y="126.73" type="line"/>
      <point x="39.0218" y="101.664"/>
      <point x="50.8372" y="47.8793"/>
      <point x="82.8835" y="47.8793" type="curve" smooth="yes"/>
      <point x="87.7647" y="47.8793"/>
      <point x="92.675" y="48.9867"/>
      <point x="97.2296" y="50.6896" type="curve" smooth="yes"/>
      <point x="135.567" y="65.0239"/>
      <point x="174.739" y="95.1678"/>
      <point x="209.21" y="116.92" type="curve" smooth="yes"/>
      <point x="276.459" y="159.356"/>
      <point x="343.597" y="201.961"/>
      <point x="411.297" y="243.678" type="curve" smooth="yes"/>
      <point x="587.977" y="352.551"/>
      <point x="767.839" y="453.725"/>
      <point x="950.637" y="551.893" type="curve" smooth="yes"/>
      <point x="998.67" y="577.688"/>
      <point x="1071.58" y="624.746"/>
    </contour>
    <contour>
      <point x="39.5353" y="643" type="line"/>
      <point x="93.6695" y="635.779"/>
      <point x="166.578" y="588.721"/>
      <point x="214.611" y="562.926" type="curve" smooth="yes"/>
      <point x="397.409" y="464.758"/>
      <point x="577.272" y="363.584"/>
      <point x="753.952" y="254.711" type="curve" smooth="yes"/>
      <point x="821.651" y="212.994"/>
      <point x="888.79" y="170.389"/>
      <point x="956.038" y="127.953" type="curve" smooth="yes"/>
      <point x="990.509" y="106.201"/>
      <point x="1029.68" y="76.0572"/>
      <point x="1068.02" y="61.7228" type="curve" smooth="yes"/>
      <point x="1072.57" y="60.0198"/>
      <point x="1077.48" y="58.9125"/>
      <point x="1082.37" y="58.9125" type="curve" smooth="yes"/>
      <point x="1114.41" y="58.9125"/>
      <point x="1126.23" y="112.697"/>
      <point x="1126.23" y="137.764" type="curve"/>
      <point x="1125.71" y="147.142" type="line"/>
      <point x="1113.98" y="148.706"/>
      <point x="1102.63" y="151.439"/>
      <point x="1091.46" y="155.353" type="curve" smooth="yes"/>
      <point x="1001.35" y="186.926"/>
      <point x="838.637" y="291.956"/>
      <point x="753.402" y="342.607" type="curve" smooth="yes"/>
      <point x="572.055" y="450.373"/>
      <point x="389.417" y="555.737"/>
      <point x="207.648" y="662.717" type="curve" smooth="yes"/>
      <point x="185.314" y="675.862"/>
      <point x="107.338" y="731.229"/>
      <point x="82.8836" y="731.229" type="curve" smooth="yes"/>
      <point x="50.8373" y="731.229"/>
      <point x="39.0218" y="677.445"/>
      <point x="39.0218" y="652.378" type="curve"/>
    </contour>
  </outline>
</glyph>
<glyph name="uniF44B" format="2">
  <advance width="983"/>
  <unicode hex="F44B"/>
  <outline>
    <contour>
      <point x="618" y="485" type="curve" smooth="yes"/>
      <point x="405" y="485"/>
      <point x="232.161" y="432.752"/>
      <point x="163" y="388" type="curve" smooth="yes"/>
      <point x="96.1605" y="344.751"/>
      <point x="76" y="305"/>
      <point x="76" y="259" type="curve" smooth="yes"/>
      <point x="76" y="137"/>
      <point x="252" y="0"/>
      <point x="383" y="0" type="curve" smooth="yes"/>
      <point x="411" y="0"/>
      <point x="431" y="25"/>
      <point x="429" y="64" type="curve"/>
      <point x="401" y="67" type="line"/>
      <point x="462" y="188"/>
      <point x="495" y="296"/>
      <point x="538" y="370" type="curve"/>
      <point x="482" y="365" type="line"/>
      <point x="521" y="297"/>
      <point x="548" y="167"/>
      <point x="560" y="42" type="curve"/>
      <point x="579" y="33"/>
      <point x="617.944" y="37.0819"/>
      <point x="634" y="48" type="curve" smooth="yes"/>
      <point x="642.945" y="54.0823"/>
      <point x="648" y="64"/>
      <point x="633" y="113" type="curve"/>
      <point x="615" y="51" type="line"/>
      <point x="795" y="137"/>
      <point x="900" y="256"/>
      <point x="900" y="337" type="curve" smooth="yes"/>
      <point x="900" y="436"/>
      <point x="771" y="485"/>
    </contour>
    <contour>
      <point x="165" y="255" type="curve" smooth="yes"/>
      <point x="165" y="311"/>
      <point x="232" y="403"/>
      <point x="500" y="425" type="curve"/>
      <point x="478" y="442" type="line"/>
      <point x="424" y="311"/>
      <point x="378.019" y="186.99"/>
      <point x="341" y="121" type="curve" smooth="yes"/>
      <point x="332.019" y="104.99"/>
      <point x="324" y="98"/>
      <point x="316" y="98" type="curve" smooth="yes"/>
      <point x="277" y="98"/>
      <point x="165" y="183"/>
    </contour>
    <contour>
      <point x="572" y="398" type="curve" smooth="yes"/>
      <point x="572" y="420"/>
      <point x="586" y="432"/>
      <point x="623" y="432" type="curve" smooth="yes"/>
      <point x="715" y="432"/>
      <point x="806" y="383"/>
      <point x="806" y="321" type="curve" smooth="yes"/>
      <point x="806" y="279"/>
      <point x="748" y="183"/>
      <point x="603" y="132" type="curve"/>
      <point x="634" y="131" type="line"/>
      <point x="596" y="262"/>
      <point x="572" y="378"/>
    </contour>
    <contour>
      <point x="661.407" y="918" type="curve"/>
      <point x="622.407" y="884" type="line"/>
      <point x="736.407" y="912"/>
      <point x="799.407" y="982"/>
      <point x="799.407" y="1034" type="curve" smooth="yes"/>
      <point x="799.407" y="1085"/>
      <point x="730.407" y="1128"/>
      <point x="664.407" y="1128" type="curve" smooth="yes"/>
      <point x="595.407" y="1128"/>
      <point x="536.407" y="1087"/>
      <point x="536.407" y="1025" type="curve" smooth="yes"/>
      <point x="536.407" y="988"/>
      <point x="549.407" y="950"/>
      <point x="569.407" y="914" type="curve"/>
      <point x="569.407" y="901"/>
      <point x="566.407" y="880"/>
      <point x="564.407" y="869" type="curve"/>
      <point x="444.407" y="862"/>
      <point x="337.316" y="833.133"/>
      <point x="284.407" y="797" type="curve" smooth="yes"/>
      <point x="255.316" y="777.133"/>
      <point x="222.407" y="729"/>
      <point x="222.407" y="681" type="curve" smooth="yes"/>
      <point x="222.407" y="587"/>
      <point x="325.407" y="555"/>
      <point x="530.407" y="561" type="curve"/>
      <point x="504.407" y="582" type="line"/>
      <point x="488.407" y="516"/>
      <point x="479.407" y="479"/>
      <point x="479.407" y="467" type="curve" smooth="yes"/>
      <point x="479.407" y="441"/>
      <point x="494.407" y="425"/>
      <point x="517.407" y="425" type="curve" smooth="yes"/>
      <point x="546.407" y="425"/>
      <point x="560.407" y="428"/>
      <point x="577.407" y="435" type="curve"/>
      <point x="575.407" y="445"/>
      <point x="573.407" y="462"/>
      <point x="573.407" y="477" type="curve" smooth="yes"/>
      <point x="573.407" y="499"/>
      <point x="579.407" y="531"/>
      <point x="591.407" y="590" type="curve"/>
      <point x="552.407" y="562" type="line"/>
      <point x="717.407" y="582"/>
      <point x="772.385" y="610.04"/>
      <point x="814.407" y="633" type="curve" smooth="yes"/>
      <point x="869.385" y="663.04"/>
      <point x="911.407" y="719"/>
      <point x="911.407" y="765" type="curve" smooth="yes"/>
      <point x="911.407" y="824"/>
      <point x="863.407" y="875"/>
      <point x="706.407" y="875" type="curve" smooth="yes"/>
      <point x="672.407" y="875"/>
      <point x="659.407" y="874"/>
      <point x="647.407" y="874" type="curve"/>
      <point x="649.407" y="892"/>
      <point x="658.407" y="909"/>
    </contour>
    <contour>
      <point x="613.407" y="1023" type="curve" smooth="yes"/>
      <point x="613.407" y="1051"/>
      <point x="632.407" y="1070"/>
      <point x="668.407" y="1070" type="curve" smooth="yes"/>
      <point x="697.407" y="1070"/>
      <point x="725.407" y="1053"/>
      <point x="725.407" y="1024" type="curve" smooth="yes"/>
      <point x="725.407" y="991"/>
      <point x="679.407" y="952"/>
      <point x="650.407" y="952" type="curve" smooth="yes"/>
      <point x="633.407" y="952"/>
      <point x="613.407" y="984"/>
    </contour>
    <contour>
      <point x="815.407" y="752" type="curve" smooth="yes"/>
      <point x="815.407" y="687"/>
      <point x="726.407" y="627"/>
      <point x="622.407" y="627" type="curve" smooth="yes"/>
      <point x="608.407" y="627"/>
      <point x="599.186" y="628.03"/>
      <point x="603.407" y="658" type="curve" smooth="yes"/>
      <point x="609.186" y="699.032"/>
      <point x="618.407" y="747"/>
      <point x="638.407" y="840" type="curve"/>
      <point x="607.407" y="824" type="line"/>
      <point x="788.407" y="824"/>
      <point x="815.407" y="795"/>
    </contour>
    <contour>
      <point x="317.407" y="691" type="curve" smooth="yes"/>
      <point x="317.407" y="782"/>
      <point x="440.407" y="815"/>
      <point x="586.407" y="820" type="curve"/>
      <point x="558.407" y="838" type="line"/>
      <point x="543.407" y="742"/>
      <point x="530.407" y="683"/>
      <point x="522.407" y="655" type="curve"/>
      <point x="514.407" y="623"/>
      <point x="503.407" y="613"/>
      <point x="483.407" y="613" type="curve" smooth="yes"/>
      <point x="373.407" y="613"/>
      <point x="317.407" y="639"/>
    </contour>
  </outline>
</glyph>
<glyph name="uniF4E1" format="2">
  <advance width="389"/>
  <unicode hex="F4E1"/>
  <outline>
    <contour>
      <point x="338.25" y="330.5" type="curve" smooth="yes"/>
      <point x="338.25" y="412.25"/>
      <point x="232.5" y="484"/>
      <point x="92.25" y="484" type="curve" smooth="yes"/>
      <point x="61.5" y="484"/>
      <point x="35" y="467"/>
      <point x="41" y="439.25" type="curve"/>
      <point x="173.197" y="439.25"/>
      <point x="253.25" y="397.835"/>
      <point x="253.25" y="330.5" type="curve" smooth="yes"/>
      <point x="253.25" y="263.165"/>
      <point x="173.197" y="221.75"/>
      <point x="41" y="221.75" type="curve"/>
      <point x="35" y="194"/>
      <point x="61.5" y="177"/>
      <point x="92.25" y="177" type="curve" smooth="yes"/>
      <point x="232.5" y="177"/>
      <point x="338.25" y="248.75"/>
    </contour>
  </outline>
</glyph>
<glyph name="uniF4E2" format="2">
  <advance width="389"/>
  <unicode hex="F4E2"/>
  <outline>
    <contour>
      <point x="40" y="330.5" type="curve" smooth="yes"/>
      <point x="40" y="248.75"/>
      <point x="145.75" y="177"/>
      <point x="286" y="177" type="curve" smooth="yes"/>
      <point x="316.75" y="177"/>
      <point x="343.25" y="194"/>
      <point x="337.25" y="221.75" type="curve"/>
      <point x="205.053" y="221.75"/>
      <point x="125" y="263.165"/>
      <point x="125" y="330.5" type="curve" smooth="yes"/>
      <point x="125" y="397.835"/>
      <point x="205.053" y="439.25"/>
      <point x="337.25" y="439.25" type="curve"/>
      <point x="343.25" y="467"/>
      <point x="316.75" y="484"/>
      <point x="286" y="484" type="curve" smooth="yes"/>
      <point x="145.75" y="484"/>
      <point x="40" y="412.25"/>
    </contour>
  </outline>
</glyph>
<glyph name="uni1275.ss01" format="2">
  <advance width="739"/>
  <outline>
    <contour>
      <point x="591" y="334" type="curve"/>
      <point x="564" y="353" type="line"/>
      <point x="564" y="284"/>
      <point x="575" y="248"/>
      <point x="618" y="248" type="curve" smooth="yes"/>
      <point x="645" y="248"/>
      <point x="663" y="256"/>
      <point x="673" y="266" type="curve"/>
      <point x="657" y="295"/>
      <point x="651" y="360"/>
      <point x="665" y="408" type="curve"/>
      <point x="653" y="415"/>
      <point x="635" y="419"/>
      <point x="614" y="419" type="curve" smooth="yes"/>
      <point x="589" y="419"/>
      <point x="567" y="403"/>
      <point x="565" y="360" type="curve"/>
      <point x="584" y="387" type="line"/>
      <point x="481" y="370"/>
      <point x="235" y="327"/>
      <point x="152" y="317" type="curve"/>
      <point x="87" y="326"/>
      <point x="61" y="263"/>
      <point x="61" y="218" type="curve" smooth="yes"/>
      <point x="61" y="192"/>
      <point x="78" y="177"/>
      <point x="111" y="177" type="curve" smooth="yes"/>
      <point x="134" y="177"/>
      <point x="152" y="181"/>
      <point x="180" y="193" type="curve"/>
      <point x="171" y="225"/>
      <point x="170" y="271"/>
      <point x="197" y="305" type="curve"/>
      <point x="154" y="266" type="line"/>
      <point x="239" y="288"/>
      <point x="478" y="323"/>
    </contour>
    <contour>
      <point x="407" y="600" type="curve"/>
      <point x="384" y="573" type="line"/>
      <point x="434" y="575"/>
      <point x="445" y="586"/>
      <point x="445" y="604" type="curve" smooth="yes"/>
      <point x="445" y="636"/>
      <point x="377" y="657"/>
      <point x="321" y="657" type="curve" smooth="yes"/>
      <point x="291" y="657"/>
      <point x="278" y="631"/>
      <point x="285" y="611" type="curve"/>
      <point x="311" y="606"/>
      <point x="318" y="595"/>
      <point x="324" y="579" type="curve" smooth="yes"/>
      <point x="340" y="534"/>
      <point x="348" y="488"/>
      <point x="348" y="435" type="curve" smooth="yes"/>
      <point x="348.0" y="272.28795811518324"/>
      <point x="281" y="115"/>
      <point x="246" y="65" type="curve" smooth="yes"/>
      <point x="218" y="25"/>
      <point x="217.0" y="15.521739130434783"/>
      <point x="217" y="7" type="curve" smooth="yes"/>
      <point x="217.0" y="-13.0"/>
      <point x="232.0" y="-29"/>
      <point x="267" y="-29" type="curve"/>
      <point x="280.1896551724138" y="-29.0"/>
      <point x="304.53446469663766" y="-26.2148624477057"/>
      <point x="318" y="-20" type="curve"/>
      <point x="314" y="-14"/>
      <point x="311.0" y="-3"/>
      <point x="311" y="2" type="curve" smooth="yes"/>
      <point x="311.0" y="14.342857142857143"/>
      <point x="313.1454759465007" y="24.29095189300147"/>
      <point x="320" y="38" type="curve" smooth="yes"/>
      <point x="351" y="102"/>
      <point x="429.0" y="258.90640394088666"/>
      <point x="429" y="442" type="curve" smooth="yes"/>
      <point x="429" y="498"/>
      <point x="422" y="553"/>
    </contour>
  </outline>
</glyph>
<glyph name="uni1355.ss01" format="2">
  <advance width="702"/>
  <outline>
    <contour>
      <point x="560" y="514" type="curve"/>
      <point x="524" y="542" type="line"/>
      <point x="523" y="483"/>
      <point x="541" y="449"/>
      <point x="594" y="449" type="curve" smooth="yes"/>
      <point x="609" y="449"/>
      <point x="634" y="454"/>
      <point x="646" y="462" type="curve"/>
      <point x="632" y="495"/>
      <point x="629" y="531"/>
      <point x="634" y="555" type="curve"/>
      <point x="614" y="560"/>
      <point x="571" y="567"/>
      <point x="553" y="567" type="curve"/>
      <point x="450" y="563"/>
      <point x="207" y="551"/>
      <point x="124" y="545" type="curve"/>
      <point x="84" y="529"/>
      <point x="60" y="480"/>
      <point x="60" y="447" type="curve" smooth="yes"/>
      <point x="60" y="421"/>
      <point x="77" y="406"/>
      <point x="110" y="406" type="curve" smooth="yes"/>
      <point x="133" y="406"/>
      <point x="151" y="410"/>
      <point x="179" y="422" type="curve"/>
      <point x="170" y="454"/>
      <point x="169" y="500"/>
      <point x="196" y="534" type="curve"/>
      <point x="153" y="495" type="line"/>
      <point x="234" y="503"/>
      <point x="415" y="514"/>
    </contour>
    <contour>
      <point x="410.715" y="542" type="curve"/>
      <point x="321.619" y="512.616" type="line"/>
      <point x="321.619" y="470.616"/>
      <point x="246" y="309"/>
      <point x="246" y="277" type="curve" smooth="yes"/>
      <point x="246" y="242"/>
      <point x="294" y="168"/>
      <point x="294" y="139" type="curve" smooth="yes"/>
      <point x="294" y="107"/>
      <point x="270" y="56"/>
      <point x="270" y="27" type="curve" smooth="yes"/>
      <point x="270" y="-8"/>
      <point x="288" y="-29"/>
      <point x="317" y="-29" type="curve" smooth="yes"/>
      <point x="337" y="-29"/>
      <point x="364" y="-25"/>
      <point x="378" y="-8" type="curve"/>
      <point x="373" y="8"/>
      <point x="371" y="28"/>
      <point x="371" y="50" type="curve" smooth="yes"/>
      <point x="371" y="75"/>
      <point x="377" y="108"/>
      <point x="377" y="144" type="curve" smooth="yes"/>
      <point x="377" y="204"/>
      <point x="332" y="262"/>
      <point x="332" y="289" type="curve" smooth="yes"/>
      <point x="332" y="319"/>
      <point x="410.715" y="495"/>
    </contour>
  </outline>
</glyph>
